<svg width="70" height="68" viewBox="0 0 70 68" fill="none" xmlns="http://www.w3.org/2000/svg">
<path id="Vector" d="M29.4 0C22.4766 0 16.8 5.67656 16.8 12.6C16.8 14.8422 17.4344 16.9203 18.4625 18.725C13.4203 21.6781 9.47188 25.8672 7.35 30.8H7C6.20156 30.8 5.6 30.1984 5.6 29.4C5.6 28.9078 5.85156 28.5141 6.2125 28.2625L2.975 23.7125C1.17031 24.9813 0 27.0484 0 29.4C0 32.8453 2.57031 35.6672 5.8625 36.225C5.72031 37.2094 5.6 38.1828 5.6 39.2C5.6 46.1781 9.30781 52.2266 14.7 56.7C14.0219 59.5 14.3609 62.4859 16.5375 64.6625C19.8516 67.9766 25.2984 67.9766 28.6125 64.6625L29.6625 63.6125C31.85 64.0172 34.0484 64.4 36.4 64.4C38.7516 64.4 40.95 64.0172 43.1375 63.6125L44.1875 64.6625C47.5016 67.9766 52.9484 67.9766 56.2625 64.6625C58.3953 62.5297 58.7125 59.6312 58.1 56.875C60.3859 55.0047 62.2891 52.8391 63.7875 50.4H70V28H63.6125C62.6063 26.3703 61.4031 24.8281 60.025 23.45L61.6 14.7875V11.2H58.8C58.8 11.2 52.0734 11.3094 46.375 15.575C44.8875 15.1484 43.3891 14.7984 41.825 14.525C41.9344 13.9016 42 13.2563 42 12.6C42 5.67656 36.3234 0 29.4 0ZM29.4 5.6C33.2938 5.6 36.4 8.70625 36.4 12.6C36.4 13.0813 36.3125 13.5406 36.225 14C31.7078 14.0219 27.4422 14.8969 23.5375 16.3625C22.8156 15.2688 22.4 13.9891 22.4 12.6C22.4 8.70625 25.5063 5.6 29.4 5.6ZM55.3 17.325C55.3438 17.3141 55.3438 17.3359 55.3875 17.325L54.3375 23.7125L54.075 25.2L55.3 26.25C57.2578 27.9781 58.7781 29.9141 59.85 32.025L60.6375 33.6H64.4V44.8H60.6375L59.85 46.375C58.4828 49.0766 56.3281 51.45 53.55 53.4625L51.5375 54.95L52.7625 57.225C53.4297 58.3516 53.3094 59.7406 52.325 60.725C51.1547 61.8953 49.3828 61.8953 48.2125 60.725L46.2 58.7125L45.0625 57.6625L43.575 58.0125C41.3 58.5375 38.8828 58.8 36.4 58.8C33.9172 58.8 31.5109 58.5375 29.225 58.0125L27.7375 57.6625L26.6 58.7125L24.5875 60.725C23.4172 61.8953 21.6453 61.8953 20.475 60.725C19.4906 59.7406 19.3703 58.3516 20.0375 57.225L21.2625 54.95L19.25 53.4625C14.1859 49.7875 11.2 44.7672 11.2 39.2C11.2 28.7219 22.1484 19.6 36.4 19.6C39.8453 19.6 43.1266 20.1141 46.1125 21.0875L47.6 21.6125L48.825 20.5625C50.8266 18.7797 53.2984 17.8172 55.3 17.325ZM53.2 33.6C51.6578 33.6 50.4 34.8578 50.4 36.4C50.4 37.9422 51.6578 39.2 53.2 39.2C54.7422 39.2 56 37.9422 56 36.4C56 34.8578 54.7422 33.6 53.2 33.6Z" fill="#494B51"/>
</svg>
