<svg width="68" height="68" viewBox="0 0 68 68" fill="none" xmlns="http://www.w3.org/2000/svg">
<g id="scale-frame-enlarge-svgrepo-com 1">
<path id="Vector" d="M31.1667 38.5334V59.5H10.2C9.26112 59.5 8.5 58.739 8.5 57.8V36.8334H29.4667C30.4056 36.8334 31.1667 37.5944 31.1667 38.5334Z" stroke="#494B51" stroke-width="5" stroke-linecap="round" stroke-linejoin="round"/>
<path id="Vector_2" d="M31.1665 59.5H39.6665" stroke="#494B51" stroke-width="5" stroke-linecap="round" stroke-linejoin="round"/>
<path id="Vector_3" d="M8.5 36.8334V28.3334" stroke="#494B51" stroke-width="5" stroke-linecap="round" stroke-linejoin="round"/>
<path id="Vector_4" d="M17 8.5H10.2C9.26112 8.5 8.5 9.26112 8.5 10.2V17" stroke="#494B51" stroke-width="5" stroke-linecap="round" stroke-linejoin="round"/>
<path id="Vector_5" d="M39.6668 8.5H28.3335" stroke="#494B51" stroke-width="5" stroke-linecap="round" stroke-linejoin="round"/>
<path id="Vector_6" d="M59.5 28.3334V39.6667" stroke="#494B51" stroke-width="5" stroke-linecap="round" stroke-linejoin="round"/>
<path id="Vector_7" d="M51 8.5H57.8C58.739 8.5 59.5 9.26112 59.5 10.2V17" stroke="#494B51" stroke-width="5" stroke-linecap="round" stroke-linejoin="round"/>
<path id="Vector_8" d="M51 59.5H57.8C58.739 59.5 59.5 58.739 59.5 57.8V51" stroke="#494B51" stroke-width="5" stroke-linecap="round" stroke-linejoin="round"/>
<path id="Vector_9" d="M31.1665 28.3334H39.6665V36.8334" stroke="#494B51" stroke-width="5" stroke-linecap="round" stroke-linejoin="round"/>
</g>
</svg>
