<svg width="70" height="70" viewBox="0 0 70 70" fill="none" xmlns="http://www.w3.org/2000/svg">
<path d="M46.6668 64.1666V37.9166C46.6668 33.7919 46.6668 31.7295 45.3855 30.4479C44.104 29.1666 42.0416 29.1666 37.9168 29.1666H32.0835C27.9587 29.1666 25.8963 29.1666 24.6149 30.4479C23.3335 31.7295 23.3335 33.7919 23.3335 37.9166V64.1666" stroke="#494B51" stroke-width="5" stroke-linecap="round"/>
<path d="M23.3335 64.1666C23.3335 60.0419 23.3335 57.9795 22.0521 56.6979C20.7707 55.4166 18.7083 55.4166 14.5835 55.4166C10.4587 55.4166 8.39631 55.4166 7.1149 56.6979C5.8335 57.9795 5.8335 60.0419 5.8335 64.1666" stroke="#494B51" stroke-width="5" stroke-linecap="round"/>
<path d="M64.1665 64.1666V55.4166C64.1665 51.2919 64.1665 49.2295 62.8852 47.9479C61.6036 46.6666 59.5413 46.6666 55.4165 46.6666C51.2918 46.6666 49.2294 46.6666 47.9478 47.9479C46.6665 49.2295 46.6665 51.2919 46.6665 55.4166V64.1666" stroke="#494B51" stroke-width="5" stroke-linecap="round"/>
<path d="M32.5089 8.81569C33.6172 6.82749 34.1714 5.83337 35 5.83337C35.8286 5.83337 36.3828 6.82749 37.4911 8.81569L37.7778 9.33008C38.0925 9.89507 38.25 10.1776 38.4956 10.3639C38.7412 10.5504 39.0469 10.6195 39.6585 10.7579L40.2153 10.8839C42.3675 11.3709 43.4437 11.6144 43.6998 12.4376C43.9559 13.2609 43.2221 14.1188 41.755 15.8346L41.3752 16.2785C40.9584 16.766 40.7499 17.0098 40.656 17.3114C40.5624 17.613 40.5939 17.9382 40.6569 18.5887L40.7143 19.181C40.936 21.4701 41.0471 22.6147 40.3769 23.1236C39.7063 23.6324 38.6989 23.1685 36.6838 22.2406L36.1626 22.0006C35.5897 21.7369 35.3036 21.6051 35 21.6051C34.6964 21.6051 34.4102 21.7369 33.8374 22.0006L33.3162 22.2406C31.3011 23.1685 30.2937 23.6324 29.6231 23.1236C28.953 22.6147 29.0639 21.4701 29.2857 19.181L29.3431 18.5887C29.4061 17.9382 29.4376 17.613 29.344 17.3114C29.2501 17.0098 29.0416 16.766 28.6247 16.2785L28.2451 15.8346C26.7778 14.1188 26.0442 13.2609 26.3002 12.4376C26.5563 11.6144 27.6324 11.3709 29.7847 10.8839L30.3415 10.7579C30.9531 10.6195 31.2588 10.5504 31.5044 10.3639C31.75 10.1776 31.9074 9.89507 32.2222 9.33008L32.5089 8.81569Z" stroke="#494B51" stroke-width="5"/>
</svg>
