<svg width="70" height="70" viewBox="0 0 70 70" fill="none" xmlns="http://www.w3.org/2000/svg">
<g id="handshake-svgrepo-com (1) 1">
<path id="Vector" d="M35.7022 8.64587C35.0186 8.64587 34.4081 8.95947 34.0071 9.45064L33.8405 9.5767C27.586 7.68066 20.51 9.1901 15.5635 14.105C11.1635 18.4768 9.47535 24.5226 10.4989 30.179L10.4551 30.2221L7.66343 32.9959C5.23589 35.408 5.23589 39.3186 7.66343 41.7307C9.08956 43.1476 11.0363 43.7321 12.8919 43.4842C13.1653 44.4943 13.7009 45.4486 14.4986 46.2414C15.5829 47.3185 16.968 47.9146 18.3853 48.0296C18.5008 49.4383 19.1008 50.815 20.1853 51.8924C21.3196 53.0194 22.7833 53.6199 24.2684 53.6937C24.3429 55.169 24.9472 56.6229 26.0812 57.7496C28.2987 59.9532 31.7749 60.1437 34.2101 58.3216L35.3373 59.4419C37.7768 61.8657 41.7316 61.8657 44.1711 59.4419C45.2514 58.3683 45.8531 56.9998 45.9765 55.5977C47.3849 55.4779 48.7601 54.8823 49.8384 53.811C50.9196 52.7368 51.519 51.3665 51.6377 49.9633C53.0278 49.8335 54.3823 49.2394 55.4472 48.1812C56.2819 47.352 56.8297 46.3458 57.0904 45.2841C58.9183 45.5008 60.8243 44.9125 62.227 43.5189C64.6545 41.1069 64.6545 37.1962 62.227 34.7841L59.7959 32.3688L60.2956 30.4246C61.3814 26.1977 60.8354 21.7202 58.7658 17.8747C55.7106 12.1974 49.7629 8.66049 43.2975 8.66049H38.6113C38.4115 8.6508 38.2108 8.64587 38.009 8.64587H35.7022ZM44.2311 23.0692L54.3336 33.107L54.345 33.119L54.3838 33.1586L59.1233 37.8679C59.8371 38.5769 59.8371 39.7264 59.1233 40.4351C58.4099 41.1442 57.2532 41.1442 56.5395 40.4351L51.7999 35.7259C50.943 34.8742 49.5535 34.8742 48.6966 35.7259L48.649 35.7731C47.7918 36.6245 47.7918 38.0053 48.649 38.8566L52.3438 42.5279C53.0578 43.2375 53.0578 44.3881 52.3438 45.0977C51.6928 45.7444 50.6697 45.8024 49.9551 45.2684C49.0781 44.6127 47.8484 44.7016 47.0761 45.4766C46.304 46.2516 46.2267 47.4742 46.8955 48.339C47.445 49.0498 47.3905 50.0759 46.7351 50.7272C46.0742 51.3837 45.0303 51.4336 44.3143 50.8736C43.4431 50.192 42.1968 50.2634 41.4101 51.0401C40.6232 51.8169 40.5436 53.0547 41.2241 53.9247C41.789 54.6469 41.7356 55.6943 41.0674 56.3581C40.3421 57.0788 39.1663 57.0788 38.441 56.3581L37.3568 55.281L37.6637 54.9759C40.0912 52.5638 40.0912 48.6531 37.6637 46.2414C36.5294 45.1141 35.0658 44.5138 33.5806 44.44C33.5063 42.9648 32.9019 41.5108 31.7679 40.3838C30.6835 39.3067 29.2984 38.7105 27.8812 38.5956C27.7657 37.1871 27.1657 35.8105 26.0812 34.7328C24.6551 33.3159 22.7084 32.7314 20.8527 32.9793C20.5793 31.9692 20.0437 31.0149 19.246 30.2221C17.9879 28.9721 16.3248 28.3699 14.6764 28.4156C14.2482 24.4117 15.5784 20.2574 18.667 17.1886C21.5376 14.3364 25.3521 12.9934 29.1115 13.1596L24.7439 16.4687C21.7576 18.7312 21.1823 22.9816 23.4597 25.9566C25.7319 28.9248 29.985 29.5003 32.9643 27.243L38.4733 23.0692H44.2311ZM27.3859 19.9559L36.5393 13.0209H38.009C38.1534 13.0209 38.2966 13.0248 38.4386 13.0324C38.4774 13.0345 38.5165 13.0355 38.5556 13.0355H43.2975C48.1631 13.0355 52.6256 15.6972 54.9134 19.948C56.3563 22.6292 56.809 25.7185 56.2078 28.6839L46.8392 19.3609C46.4271 18.9348 45.8595 18.6942 45.2668 18.6942H37.7383C37.2612 18.6942 36.7974 18.8501 36.4171 19.1381L30.3224 23.7558C29.2619 24.5592 27.7423 24.3535 26.9337 23.2972C26.1302 22.2476 26.3323 20.7541 27.3859 19.9559ZM17.6021 43.1576C17.1124 42.6711 16.9588 41.9769 17.1413 41.3603C17.2248 41.0783 17.3784 40.8126 17.6021 40.5903L20.3939 37.8166C21.1074 37.1075 22.2642 37.1075 22.9777 37.8166C23.6831 38.5171 23.6912 39.6485 23.0019 40.3593L22.977 40.3838L20.1853 43.1579L20.1612 43.1818C19.9426 43.3912 19.6844 43.5356 19.4112 43.6155C18.7904 43.7969 18.0919 43.6441 17.6021 43.1576ZM16.1692 33.3331C16.3894 33.5609 16.5381 33.8318 16.6152 34.1179C16.7786 34.724 16.6211 35.3978 16.1425 35.8732L13.3508 38.6469C12.6373 39.356 11.4804 39.356 10.7669 38.6469C10.0534 37.9379 10.0534 36.7887 10.7669 36.0797L13.5586 33.3059C14.2722 32.5969 15.429 32.5969 16.1425 33.3059L16.1692 33.3331ZM31.7685 54.6661C31.5445 54.889 31.2765 55.0415 30.9921 55.1244C30.372 55.3052 29.6741 55.1524 29.1846 54.6661C28.6954 54.1799 28.5417 53.4866 28.7235 52.8701C28.8068 52.5877 28.9605 52.3214 29.1846 52.0989L31.9765 49.3249C32.6899 48.6158 33.8469 48.6158 34.5603 49.3249C35.2738 50.0339 35.2738 51.1834 34.5603 51.8924L31.7685 54.6661ZM25.8727 48.8089C25.6491 49.0309 25.3819 49.1834 25.0985 49.2665C24.4776 49.4482 23.7787 49.2954 23.2888 48.8089C22.7989 48.3221 22.6454 47.6276 22.8282 47.0108C22.9086 46.7392 23.0541 46.4829 23.2647 46.2659L23.2895 46.2414L26.0812 43.4673L26.1053 43.4434C26.8206 42.7589 27.9591 42.7667 28.6644 43.4676C29.378 44.1766 29.378 45.3261 28.6644 46.0349L25.8727 48.8089Z" fill="#494B51"/>
</g>
</svg>
