<svg width="23" height="23" viewBox="0 0 23 23" fill="none" xmlns="http://www.w3.org/2000/svg">
<g id="eva:arrow-back-fill">
<path id="Vector" d="M18.2147 12.215L7.20185 12.215L10.5726 16.2636C10.7302 16.4532 10.806 16.6977 10.7834 16.9432C10.7607 17.1888 10.6415 17.4152 10.4518 17.5729C10.2622 17.7305 10.0177 17.8063 9.7722 17.7837C9.52666 17.761 9.30018 17.6418 9.14256 17.4521L4.4997 11.8807C4.46847 11.8364 4.44054 11.7899 4.41613 11.7414C4.41613 11.695 4.41613 11.6671 4.35113 11.6207C4.30904 11.5143 4.28701 11.4009 4.28613 11.2864C4.28701 11.172 4.30904 11.0586 4.35113 10.9521C4.35113 10.9057 4.35113 10.8779 4.41613 10.8314C4.44054 10.783 4.46847 10.7365 4.4997 10.6921L9.14256 5.12072C9.22987 5.0159 9.3392 4.93161 9.46278 4.87383C9.58635 4.81605 9.72114 4.78621 9.85756 4.78644C10.0745 4.78601 10.2848 4.86157 10.4518 5.00001C10.5459 5.07796 10.6236 5.1737 10.6806 5.28173C10.7375 5.38977 10.7726 5.50798 10.7838 5.6296C10.7951 5.75123 10.7822 5.87386 10.7459 5.9905C10.7097 6.10713 10.6507 6.21546 10.5726 6.30929L7.20185 10.3579L18.2147 10.3579C18.461 10.3579 18.6972 10.4557 18.8713 10.6298C19.0454 10.804 19.1433 11.0402 19.1433 11.2864C19.1433 11.5327 19.0454 11.7689 18.8713 11.943C18.6972 12.1172 18.461 12.215 18.2147 12.215Z" fill="white"/>
</g>
</svg>
