<svg width="23" height="23" viewBox="0 0 23 23" fill="none" xmlns="http://www.w3.org/2000/svg">
<g id="eva:arrow-back-fill">
<path id="Vector" d="M4.78578 12.215L15.7986 12.215L12.4279 16.2636C12.2703 16.4532 12.1945 16.6977 12.2171 16.9432C12.2398 17.1888 12.359 17.4152 12.5486 17.5729C12.7383 17.7305 12.9827 17.8063 13.2283 17.7837C13.4738 17.761 13.7003 17.6418 13.8579 17.4521L18.5008 11.8807C18.532 11.8364 18.56 11.7899 18.5844 11.7414C18.5844 11.695 18.5844 11.6671 18.6494 11.6207C18.6914 11.5143 18.7135 11.4009 18.7144 11.2864C18.7135 11.172 18.6914 11.0586 18.6494 10.9521C18.6494 10.9057 18.6494 10.8779 18.5844 10.8314C18.56 10.783 18.532 10.7365 18.5008 10.6921L13.8579 5.12072C13.7706 5.0159 13.6613 4.93161 13.5377 4.87383C13.4141 4.81605 13.2793 4.78621 13.1429 4.78644C12.926 4.78601 12.7157 4.86157 12.5486 5.00001C12.4546 5.07796 12.3769 5.1737 12.3199 5.28173C12.263 5.38977 12.2279 5.50798 12.2166 5.6296C12.2054 5.75123 12.2183 5.87386 12.2546 5.9905C12.2908 6.10713 12.3497 6.21546 12.4279 6.30929L15.7986 10.3579L4.78578 10.3579C4.53951 10.3579 4.30333 10.4557 4.12918 10.6298C3.95504 10.804 3.85721 11.0402 3.85721 11.2864C3.85721 11.5327 3.95504 11.7689 4.12918 11.943C4.30333 12.1172 4.53951 12.215 4.78578 12.215Z" fill="#DBDBDB"/>
</g>
</svg>
