<svg width="23" height="23" viewBox="0 0 23 23" fill="none" xmlns="http://www.w3.org/2000/svg">
<g id="eva:arrow-back-fill">
<path id="Vector" d="M17.786 10.3568H6.77314L10.1439 6.3082C10.3015 6.11857 10.3773 5.87409 10.3547 5.62856C10.332 5.38302 10.2128 5.15653 10.0231 4.99891C9.83351 4.8413 9.58903 4.76547 9.34349 4.78811C9.09795 4.81075 8.87146 4.93 8.71385 5.11963L4.07099 10.6911C4.03976 10.7354 4.01182 10.7819 3.98742 10.8303C3.98742 10.8768 3.98742 10.9046 3.92242 10.9511C3.88033 11.0575 3.8583 11.1709 3.85742 11.2853C3.8583 11.3998 3.88033 11.5132 3.92242 11.6196C3.92242 11.6661 3.92242 11.6939 3.98742 11.7403C4.01182 11.7888 4.03976 11.8353 4.07099 11.8796L8.71385 17.4511C8.80116 17.5559 8.91049 17.6402 9.03406 17.6979C9.15764 17.7557 9.29243 17.7856 9.42885 17.7853C9.64581 17.7858 9.85608 17.7102 10.0231 17.5718C10.1172 17.4938 10.1949 17.3981 10.2519 17.29C10.3088 17.182 10.3439 17.0638 10.3551 16.9422C10.3663 16.8206 10.3535 16.6979 10.3172 16.5813C10.2809 16.4646 10.222 16.3563 10.1439 16.2625L6.77314 12.2139H17.786C18.0323 12.2139 18.2685 12.1161 18.4426 11.9419C18.6167 11.7678 18.7146 11.5316 18.7146 11.2853C18.7146 11.0391 18.6167 10.8029 18.4426 10.6287C18.2685 10.4546 18.0323 10.3568 17.786 10.3568Z" fill="#DBDBDB"/>
</g>
</svg>
