<svg xmlns="http://www.w3.org/2000/svg" width="14" height="14" viewBox="0 0 14 14" fill="none">
<path d="M5.24963 9.44998L3.20796 7.40832C3.15457 7.35428 3.09099 7.31137 3.02089 7.28209C2.9508 7.25281 2.87559 7.23773 2.79963 7.23773C2.72366 7.23773 2.64845 7.25281 2.57836 7.28209C2.50827 7.31137 2.44468 7.35428 2.39129 7.40832C2.33725 7.46171 2.29435 7.52529 2.26506 7.59538C2.23578 7.66548 2.2207 7.74069 2.2207 7.81665C2.2207 7.89261 2.23578 7.96782 2.26506 8.03792C2.29435 8.10801 2.33725 8.1716 2.39129 8.22498L4.83546 10.6692C5.06296 10.8967 5.43046 10.8967 5.65796 10.6692L11.8413 4.49165C11.8953 4.43826 11.9382 4.37468 11.9675 4.30458C11.9968 4.23449 12.0119 4.15928 12.0119 4.08332C12.0119 4.00735 11.9968 3.93214 11.9675 3.86205C11.9382 3.79196 11.8953 3.72837 11.8413 3.67498C11.7879 3.62094 11.7243 3.57804 11.6542 3.54876C11.5841 3.51947 11.5089 3.50439 11.433 3.50439C11.357 3.50439 11.2818 3.51947 11.2117 3.54876C11.1416 3.57804 11.078 3.62094 11.0246 3.67498L5.24963 9.44998Z" fill="white"/>
</svg>