<svg width="70" height="70" viewBox="0 0 70 70" fill="none" xmlns="http://www.w3.org/2000/svg">
<g id="cloud-storage 1" clip-path="url(#clip0_201_1481)">
<g id="Group">
<path id="Vector" d="M70 30.6739C70 24.85 65.2665 20.104 59.4285 20.104H59.2339V20.0339C59.2339 10.6819 51.6318 3.06592 42.2645 3.06592C36.0905 3.06592 30.4345 6.42594 27.4524 11.7459C25.6465 10.6959 23.5606 10.1218 21.4339 10.1218C15.0904 10.1218 9.89643 15.0639 9.47788 21.294C4.21402 21.5601 0 25.928 0 31.2621C0 35.9241 3.22 39.858 7.54597 40.9359V36.666C7.54597 34.3559 9.43458 32.466 11.746 32.466H59.696C62.0046 32.466 63.896 34.3561 63.896 36.666V40.2358C67.4938 38.528 70 34.86 70 30.6739Z" fill="#131414"/>
<path id="Vector_2" d="M61.0957 36.6662C61.0957 35.896 60.4658 35.2661 59.6958 35.2661H11.7457C10.9756 35.2661 10.3457 35.896 10.3457 36.6662V48.3002C10.3457 49.0701 10.9756 49.7001 11.7457 49.7001H59.6958C60.4658 49.7001 61.0957 49.0701 61.0957 48.3002V36.6662ZM19.0957 43.8831C19.0957 44.6574 18.4699 45.2831 17.6958 45.2831C16.9215 45.2831 16.2958 44.6574 16.2958 43.8831V41.0831C16.2958 40.3089 16.9215 39.6831 17.6958 39.6831C18.47 39.6831 19.0957 40.3089 19.0957 41.0831V43.8831ZM25.1116 43.8831C25.1116 44.6574 24.4857 45.2831 23.7115 45.2831C22.9374 45.2831 22.3115 44.6574 22.3115 43.8831V41.0831C22.3115 40.3089 22.9374 39.6831 23.7115 39.6831C24.4857 39.6831 25.1116 40.3089 25.1116 41.0831V43.8831ZM53.7457 43.8831H34.2984C33.5256 43.8831 32.8984 43.2573 32.8984 42.4832C32.8984 41.709 33.5256 41.0831 34.2984 41.0831H53.7459C54.5201 41.0831 55.1459 41.709 55.1459 42.4832C55.1458 43.2573 54.5199 43.8831 53.7457 43.8831Z" fill="#131414"/>
<path id="Vector_3" d="M59.6958 52.501H11.7457C10.9756 52.501 10.3457 53.1309 10.3457 53.901V65.5337C10.3457 66.3036 10.9756 66.9337 11.7457 66.9337H59.6958C60.4658 66.9337 61.0957 66.3036 61.0957 65.5337V53.901C61.0957 53.1309 60.4658 52.501 59.6958 52.501ZM19.0957 61.1166C19.0957 61.8907 18.4699 62.5166 17.6958 62.5166C16.9215 62.5166 16.2958 61.8907 16.2958 61.1166V58.3165C16.2958 57.5423 16.9215 56.9164 17.6958 56.9164C18.47 56.9164 19.0957 57.5423 19.0957 58.3165V61.1166ZM25.1116 61.1166C25.1116 61.8907 24.4857 62.5166 23.7115 62.5166C22.9374 62.5166 22.3115 61.8907 22.3115 61.1166V58.3165C22.3115 57.5423 22.9374 56.9164 23.7115 56.9164C24.4857 56.9164 25.1116 57.5423 25.1116 58.3165V61.1166ZM53.7457 61.1166H34.2984C33.5256 61.1166 32.8984 60.4907 32.8984 59.7165C32.8984 58.9423 33.5256 58.3165 34.2984 58.3165H53.7459C54.5201 58.3165 55.1459 58.9423 55.1459 59.7165C55.1458 60.4907 54.5199 61.1166 53.7457 61.1166Z" fill="#131414"/>
</g>
</g>
<defs>
<clipPath id="clip0_201_1481">
<rect width="70" height="70" fill="white"/>
</clipPath>
</defs>
</svg>
