<svg width="70" height="70" viewBox="0 0 70 70" fill="none" xmlns="http://www.w3.org/2000/svg">
<g id="devops 1" clip-path="url(#clip0_201_1469)">
<g id="Group">
<path id="Vector" d="M25.8108 35.9584C26.9457 35.9584 27.8643 35.0384 27.8643 33.9048C27.8643 32.7713 26.9457 31.8513 25.8108 31.8513H24.9551C24.8415 31.4967 24.6978 31.1558 24.5294 30.83L25.1372 30.2235C25.9395 29.4212 25.9395 28.1207 25.1372 27.3184C24.335 26.5162 23.0344 26.5162 22.2321 27.3184L21.6257 27.9263C21.2998 27.7579 20.9589 27.6141 20.6044 27.5005V26.6449C20.6044 25.5099 19.6844 24.5913 18.5508 24.5913C17.4173 24.5913 16.4973 25.5099 16.4973 26.6449V27.5005C16.1427 27.6141 15.8018 27.7579 15.476 27.9263L14.8695 27.3184C14.0672 26.5162 12.7667 26.5162 11.9644 27.3184C11.1622 28.1207 11.1622 29.4212 11.9644 30.2235L12.5723 30.83C12.4039 31.1558 12.2601 31.4967 12.1465 31.8513H11.2908C10.1559 31.8513 9.2373 32.7713 9.2373 33.9048C9.2373 35.0384 10.1559 35.9584 11.2908 35.9584H12.1465C12.2601 36.3129 12.4039 36.6538 12.5723 36.9797L11.9644 37.5861C11.1622 38.3884 11.1622 39.689 11.9644 40.4912C12.3655 40.8923 12.8912 41.0922 13.417 41.0922C13.9427 41.0922 14.4684 40.8923 14.8695 40.4912L15.476 39.8834C15.8018 40.0518 16.1427 40.1955 16.4973 40.3091V41.1648C16.4973 42.2997 17.4173 43.2183 18.5508 43.2183C19.6844 43.2183 20.6044 42.2997 20.6044 41.1648V40.3091C20.9589 40.1955 21.2998 40.0518 21.6257 39.8834L22.2321 40.4912C22.6333 40.8923 23.159 41.0922 23.6847 41.0922C24.2104 41.0922 24.7361 40.8923 25.1372 40.4912C25.9395 39.689 25.9395 38.3884 25.1372 37.5861L24.5294 36.9797C24.6978 36.6538 24.8415 36.3129 24.9551 35.9584H25.8108ZM16.4973 33.9048C16.4973 32.7713 17.4173 31.8513 18.5508 31.8513C19.6844 31.8513 20.6044 32.7713 20.6044 33.9048C20.6044 35.0384 19.6844 35.9584 18.5508 35.9584C17.4173 35.9584 16.4973 35.0384 16.4973 33.9048Z" fill="#131414"/>
<path id="Vector_2" d="M51.5453 16.4499C48.7251 16.4499 45.9637 17.0933 43.4625 18.3036L43.6446 17.029C43.8061 15.9064 43.0258 14.8659 41.9032 14.7057C40.7792 14.5442 39.7401 15.3245 39.5786 16.4472L38.7558 22.2026C38.5942 23.2238 39.3061 24.2684 40.3165 24.4916C40.5082 24.5162 46.3744 25.9783 46.4005 25.8716C48.8154 25.8168 49.2343 22.4421 46.87 21.8192L46.0815 21.633C55.3909 17.6916 66.1049 24.8776 65.9885 35.0002C65.9885 42.9639 59.5089 49.4435 51.5453 49.4435C43.5816 49.4435 37.102 42.9639 37.102 35.0002C37.102 31.9473 36.3614 29.0655 35.0485 26.5232C31.9654 20.546 25.7267 16.4499 18.5516 16.4499C8.32363 16.4499 0.0012939 24.7722 0.0012939 35.0002C-0.158883 48.492 14.5842 57.7234 26.6344 51.6969L26.4523 52.9715C26.2661 54.1968 27.2505 55.3262 28.4881 55.3153C29.4929 55.3153 30.3705 54.5774 30.5183 53.5533L31.3411 47.7979C31.5027 46.7766 30.7908 45.7321 29.7804 45.5089L24.1701 44.1851C21.4964 43.6635 20.5997 47.4502 23.2269 48.1813L24.0154 48.3675C14.706 52.3089 3.99202 45.1229 4.10838 35.0002C4.10838 27.0366 10.588 20.557 18.5516 20.557C26.5153 20.557 32.9949 27.0366 32.9949 35.0002C32.9949 38.0532 33.7356 40.935 35.0485 43.4773C38.1315 49.4545 44.3702 53.5506 51.5453 53.5506C76.1454 52.5361 76.1577 17.4684 51.5453 16.4499Z" fill="#131414"/>
<path id="Vector_3" d="M44.285 33.9035C43.1501 33.9035 42.2314 34.8235 42.2314 35.9571C42.2314 37.0906 43.1501 38.0106 44.285 38.0106H45.1406C45.2543 38.3652 45.398 38.7061 45.5664 39.0319L44.9586 39.6384C44.1563 40.4406 44.1563 41.7412 44.9586 42.5435C45.3597 42.9446 45.8854 43.1445 46.4111 43.1445C46.9368 43.1445 47.4625 42.9446 47.8636 42.5435L48.4701 41.9356C48.7959 42.104 49.1368 42.2478 49.4914 42.3614V43.217C49.4914 44.352 50.4114 45.2706 51.545 45.2706C52.6785 45.2706 53.5985 44.352 53.5985 43.217V42.3614C53.9531 42.2478 54.294 42.104 54.6198 41.9356L55.2263 42.5435C55.6274 42.9446 56.1531 43.1445 56.6788 43.1445C57.2045 43.1445 57.7302 42.9446 58.1314 42.5435C58.9336 41.7412 58.9336 40.4406 58.1314 39.6384L57.5235 39.0319C57.6919 38.7061 57.8356 38.3652 57.9493 38.0106H58.8049C59.9398 38.0106 60.8585 37.0906 60.8585 35.9571C60.8585 34.8235 59.9398 33.9035 58.8049 33.9035H57.9493C57.8356 33.5489 57.6919 33.2081 57.5235 32.8822L58.1314 32.2757C58.9336 31.4735 58.9336 30.1729 58.1314 29.3707C57.3291 28.5684 56.0285 28.5684 55.2263 29.3707L54.6198 29.9785C54.294 29.8101 53.9531 29.6664 53.5985 29.5527V28.6971C53.5985 27.5622 52.6785 26.6436 51.545 26.6436C50.4114 26.6436 49.4914 27.5622 49.4914 28.6971V29.5527C49.1368 29.6664 48.7959 29.8101 48.4701 29.9785L47.8636 29.3707C47.0614 28.5684 45.7608 28.5684 44.9586 29.3707C44.1563 30.1729 44.1563 31.4735 44.9586 32.2757L45.5664 32.8822C45.398 33.2081 45.2543 33.5489 45.1406 33.9035H44.285ZM51.545 33.9035C52.6785 33.9035 53.5985 34.8235 53.5985 35.9571C53.5985 37.0906 52.6785 38.0106 51.545 38.0106C50.4114 38.0106 49.4914 37.0906 49.4914 35.9571C49.4914 34.8235 50.4114 33.9035 51.545 33.9035Z" fill="#131414"/>
</g>
</g>
<defs>
<clipPath id="clip0_201_1469">
<rect width="70" height="70" fill="white"/>
</clipPath>
</defs>
</svg>
