<svg width="70" height="71" viewBox="0 0 70 71" fill="none" xmlns="http://www.w3.org/2000/svg">
<g id="content 1">
<g id="Group">
<g id="Icon">
<path id="Vector" fill-rule="evenodd" clip-rule="evenodd" d="M31.4727 56.5277L35.2176 55.2793L32.721 52.7827L31.4727 56.5277Z" fill="#131414"/>
<path id="Vector_2" fill-rule="evenodd" clip-rule="evenodd" d="M55.4168 28.812L59.188 32.5833L37.9168 53.8545L34.1455 50.0833L55.4168 28.812Z" fill="#131414"/>
<path id="Vector_3" fill-rule="evenodd" clip-rule="evenodd" d="M61.2498 30.5211L57.4785 26.7499L61.6771 22.5513C61.9498 22.2786 62.3216 22.124 62.7081 22.124C63.0946 22.124 63.4664 22.2786 63.7391 22.5513L65.4483 24.2605C65.721 24.5332 65.8756 24.9051 65.8756 25.2915C65.8756 25.678 65.721 26.0499 65.4483 26.3226L61.2498 30.5211Z" fill="#131414"/>
<path id="Vector_4" fill-rule="evenodd" clip-rule="evenodd" d="M59.7917 13.625H4.375V9.25C4.375 8.08917 4.83583 6.97646 5.65687 6.15687C6.47646 5.33583 7.58917 4.875 8.75 4.875H55.4167C56.5775 4.875 57.6902 5.33583 58.5098 6.15687C59.3308 6.97646 59.7917 8.08917 59.7917 9.25V13.625ZM8.75 10.7083H11.6667C12.4717 10.7083 13.125 10.055 13.125 9.25C13.125 8.445 12.4717 7.79167 11.6667 7.79167H8.75C7.945 7.79167 7.29167 8.445 7.29167 9.25C7.29167 10.055 7.945 10.7083 8.75 10.7083ZM17.5 10.7083H20.4167C21.2217 10.7083 21.875 10.055 21.875 9.25C21.875 8.445 21.2217 7.79167 20.4167 7.79167H17.5C16.695 7.79167 16.0417 8.445 16.0417 9.25C16.0417 10.055 16.695 10.7083 17.5 10.7083ZM26.25 10.7083H29.1667C29.9717 10.7083 30.625 10.055 30.625 9.25C30.625 8.445 29.9717 7.79167 29.1667 7.79167H26.25C25.445 7.79167 24.7917 8.445 24.7917 9.25C24.7917 10.055 25.445 10.7083 26.25 10.7083Z" fill="#131414"/>
<path id="Vector_5" fill-rule="evenodd" clip-rule="evenodd" d="M59.7917 20.3215V16.5415H4.375V61.7498C4.375 62.9107 4.83583 64.0234 5.65687 64.843C6.47646 65.664 7.58917 66.1248 8.75 66.1248H55.4167C56.5775 66.1248 57.6902 65.664 58.5098 64.843C59.3308 64.0234 59.7917 62.9107 59.7917 61.7498V36.1036L39.4348 56.4604C38.955 56.9417 38.3688 57.3034 37.7242 57.5177C35.6942 58.1944 29.6275 60.2171 29.6275 60.2171C29.104 60.3907 28.5265 60.255 28.1356 59.8642C27.7448 59.4734 27.6092 58.8959 27.7827 58.3723C27.7827 58.3723 29.8054 52.3057 30.4821 50.2757C30.6965 49.6311 31.0581 49.0449 31.5394 48.5651L59.6152 20.4892C59.6721 20.4323 59.7319 20.3755 59.7917 20.3215ZM11.6667 60.2915H23.3333C24.1383 60.2915 24.7917 59.6382 24.7917 58.8332C24.7917 58.0282 24.1383 57.3748 23.3333 57.3748H11.6667C10.8617 57.3748 10.2083 58.0282 10.2083 58.8332C10.2083 59.6382 10.8617 60.2915 11.6667 60.2915ZM11.6667 54.4582H23.3333C24.1383 54.4582 24.7917 53.8048 24.7917 52.9998C24.7917 52.1948 24.1383 51.5415 23.3333 51.5415H11.6667C10.8617 51.5415 10.2083 52.1948 10.2083 52.9998C10.2083 53.8048 10.8617 54.4582 11.6667 54.4582ZM11.6667 48.6248H26.25C27.055 48.6248 27.7083 47.9715 27.7083 47.1665C27.7083 46.3615 27.055 45.7082 26.25 45.7082H11.6667C10.8617 45.7082 10.2083 46.3615 10.2083 47.1665C10.2083 47.9715 10.8617 48.6248 11.6667 48.6248ZM30.625 38.4165V26.7498C30.625 24.3334 28.6665 22.3748 26.25 22.3748H14.5833C12.1669 22.3748 10.2083 24.3334 10.2083 26.7498V38.4165C10.2083 40.833 12.1669 42.7915 14.5833 42.7915H26.25C28.6665 42.7915 30.625 40.833 30.625 38.4165ZM27.7083 36.1036L24.3644 32.7596C24.0917 32.4869 23.7198 32.3323 23.3333 32.3323C22.9469 32.3323 22.575 32.4869 22.3023 32.7596L15.1871 39.8748H26.25C27.055 39.8748 27.7083 39.2215 27.7083 38.4165V36.1036ZM27.7083 31.9794V26.7498C27.7083 25.9448 27.055 25.2915 26.25 25.2915H14.5833C13.7783 25.2915 13.125 25.9448 13.125 26.7498V37.8128L20.2402 30.6975C21.0598 29.878 22.1725 29.4157 23.3333 29.4157C24.4942 29.4157 25.6069 29.878 26.4265 30.6975L27.7083 31.9794ZM35 36.9582H37.9167C38.7217 36.9582 39.375 36.3048 39.375 35.4998C39.375 34.6948 38.7217 34.0415 37.9167 34.0415H35C34.195 34.0415 33.5417 34.6948 33.5417 35.4998C33.5417 36.3048 34.195 36.9582 35 36.9582ZM17.5 28.2082C18.305 28.2082 18.9583 28.8615 18.9583 29.6665C18.9583 30.4715 18.305 31.1248 17.5 31.1248C16.695 31.1248 16.0417 30.4715 16.0417 29.6665C16.0417 28.8615 16.695 28.2082 17.5 28.2082ZM35 31.1248H43.75C44.555 31.1248 45.2083 30.4715 45.2083 29.6665C45.2083 28.8615 44.555 28.2082 43.75 28.2082H35C34.195 28.2082 33.5417 28.8615 33.5417 29.6665C33.5417 30.4715 34.195 31.1248 35 31.1248ZM35 25.2915H49.5833C50.3883 25.2915 51.0417 24.6382 51.0417 23.8332C51.0417 23.0282 50.3883 22.3748 49.5833 22.3748H35C34.195 22.3748 33.5417 23.0282 33.5417 23.8332C33.5417 24.6382 34.195 25.2915 35 25.2915Z" fill="#131414"/>
</g>
</g>
</g>
</svg>
