<svg width="70" height="71" viewBox="0 0 70 71" fill="none" xmlns="http://www.w3.org/2000/svg">
<path d="M67.3078 27.2617H2.69238V57.0386C2.69238 62.9885 7.51172 67.8079 13.4347 67.8079H56.5385C62.4615 67.8079 67.3078 62.9885 67.3078 57.0386V27.2617ZM35.1079 54.5619H18.4426C16.9348 54.5619 15.7503 53.3771 15.7503 51.8696C15.7503 50.3887 16.9348 49.1773 18.4426 49.1773H35.1079C36.5888 49.1773 37.8002 50.3887 37.8002 51.8696C37.8002 53.3771 36.5888 54.5619 35.1079 54.5619ZM51.7731 40.4543H18.4426C16.9348 40.4543 15.7503 39.2425 15.7503 37.7619C15.7503 36.281 16.9348 35.0696 18.4426 35.0696H51.7731C53.254 35.0696 54.4654 36.281 54.4654 37.7619C54.4654 39.2425 53.254 40.4543 51.7731 40.4543Z" fill="#131414"/>
<path d="M67.3078 13.9616C67.3078 8.01155 62.4615 3.19238 56.5385 3.19238H13.4347C7.51172 3.19238 2.69238 8.01155 2.69238 13.9616V21.877H67.3078V13.9616ZM16.7731 15.0117C15.3278 16.1661 13.8889 15.9237 12.9772 15.0117C11.9911 14.0262 11.8197 12.3447 12.9772 11.1886C13.8226 10.343 15.2202 10.1003 16.3695 10.8654C17.4132 11.4947 18.2101 13.416 16.7731 15.0117ZM26.8962 15.0117C25.4883 16.1363 24.0717 15.9577 23.0733 15.0117C21.9053 13.7146 22.1932 12.0676 23.0733 11.1886C24.0691 10.1923 25.9004 10.1923 26.8962 11.1886C27.797 12.0882 28.0806 13.6964 26.8962 15.0117ZM37.0193 15.0117C36.1311 15.8987 34.6558 16.1831 33.1964 15.0117C32.1692 13.9284 32.1432 12.2993 33.1964 11.1886C34.642 10.0265 36.0949 10.2649 37.0193 11.1886C38.0276 12.1973 38.0878 13.8833 37.0193 15.0117Z" fill="#131414"/>
</svg>
