<svg width="70" height="71" viewBox="0 0 70 71" fill="none" xmlns="http://www.w3.org/2000/svg">
<g id="paper 1" clip-path="url(#clip0_172_355)">
<path id="Vector" d="M41.5625 0.5H8.02083C3.5875 0.5 0 4.0875 0 8.52083V53.7292C0 58.1625 3.5875 61.75 8.02083 61.75H31.7625C29.1958 58.25 27.7083 53.9917 27.7083 49.3542C27.7083 37.6875 37.1875 28.2083 48.8542 28.2083C49.0875 28.2083 49.35 28.2083 49.5833 28.2375V8.52083C49.5833 4.0875 45.9958 0.5 41.5625 0.5ZM11.6667 12.1667H23.3333C24.9375 12.1667 26.25 13.4792 26.25 15.0833C26.25 16.6875 24.9375 18 23.3333 18H11.6667C10.0625 18 8.75 16.6875 8.75 15.0833C8.75 13.4792 10.0625 12.1667 11.6667 12.1667ZM26.25 41.3333H11.6667C10.0625 41.3333 8.75 40.0208 8.75 38.4167C8.75 36.8125 10.0625 35.5 11.6667 35.5H26.25C27.8542 35.5 29.1667 36.8125 29.1667 38.4167C29.1667 40.0208 27.8542 41.3333 26.25 41.3333ZM37.9167 29.6667H11.6667C10.0625 29.6667 8.75 28.3542 8.75 26.75C8.75 25.1458 10.0625 23.8333 11.6667 23.8333H37.9167C39.5208 23.8333 40.8333 25.1458 40.8333 26.75C40.8333 28.3542 39.5208 29.6667 37.9167 29.6667Z" fill="#131414"/>
<path id="Vector_2" d="M48.8545 64.6665C40.4107 64.6665 33.542 57.7978 33.542 49.354C33.542 40.9103 40.4107 34.0415 48.8545 34.0415C57.2982 34.0415 64.167 40.9103 64.167 49.354C64.167 57.7978 57.2982 64.6665 48.8545 64.6665ZM48.8545 39.8748C43.6278 39.8748 39.3753 44.1273 39.3753 49.354C39.3753 54.5807 43.6278 58.8332 48.8545 58.8332C54.0812 58.8332 58.3337 54.5807 58.3337 49.354C58.3337 44.1273 54.0812 39.8748 48.8545 39.8748Z" fill="#131414"/>
<path id="Vector_3" d="M67.0831 70.5002C66.3364 70.5002 65.5898 70.2144 65.021 69.6457L55.5418 60.1665C54.4014 59.0261 54.4014 57.1827 55.5418 56.0423C56.6823 54.9019 58.5256 54.9019 59.666 56.0423L69.1452 65.5215C70.2856 66.6619 70.2856 68.5052 69.1452 69.6457C68.5764 70.2144 67.8298 70.5002 67.0831 70.5002Z" fill="#131414"/>
</g>
<defs>
<clipPath id="clip0_172_355">
<rect width="70" height="70" fill="white" transform="translate(0 0.5)"/>
</clipPath>
</defs>
</svg>
