<svg width="70" height="71" viewBox="0 0 70 71" fill="none" xmlns="http://www.w3.org/2000/svg">
<g id="navigation 1" clip-path="url(#clip0_172_349)">
<g id="030---Site-Navigation">
<path id="Path" d="M31.8166 50.3588L34.2504 57.9375C34.4416 58.0063 34.4754 57.925 34.4879 57.8962L43.7379 36.9075C43.7644 36.868 43.7585 36.8152 43.7241 36.7825C43.7071 36.7628 43.6826 36.751 43.6566 36.75C43.6349 36.7511 43.6136 36.7566 43.5941 36.7663L22.6116 46.0162C22.5415 46.0376 22.4954 46.1044 22.5004 46.1775L30.1391 48.6862C30.9335 48.9435 31.557 49.5651 31.8166 50.3588Z" fill="#131414"/>
<path id="Shape" d="M35 23C21.8832 23 11.25 33.6332 11.25 46.75C11.25 59.8668 21.8832 70.5 35 70.5C48.1168 70.5 58.75 59.8668 58.75 46.75C58.7355 33.6392 48.1108 23.0145 35 23ZM35 68C24.5613 68.0011 15.6676 60.4201 14.0157 50.113C12.3637 39.8058 18.4426 29.8251 28.3588 26.5638C28.783 26.424 29.2496 26.5211 29.5828 26.8187C29.916 27.1162 30.0651 27.5689 29.974 28.0062C29.883 28.4435 29.5655 28.799 29.1413 28.9387C19.8491 31.9946 14.4655 41.6784 16.7745 51.1837C19.0835 60.689 28.3097 66.8239 37.9682 65.2763C47.6267 63.7287 54.4743 55.0183 53.6978 45.2675C52.9214 35.5166 44.7817 27.9996 35 28C34.3096 28 33.75 27.4404 33.75 26.75C33.75 26.0596 34.3096 25.5 35 25.5C46.7361 25.5 56.25 35.014 56.25 46.75C56.25 58.4861 46.7361 68 35 68ZM42.5838 34.48C43.5683 34.037 44.7243 34.2489 45.4877 35.0123C46.2511 35.7757 46.463 36.9317 46.02 37.9163L36.77 58.8975C36.3538 59.8705 35.397 60.5011 34.3388 60.5H34.2013C33.1226 60.453 32.189 59.7353 31.8663 58.705L29.4375 51.125L21.7975 48.6338C20.7664 48.3116 20.0477 47.3779 20 46.2988C19.94 45.1873 20.582 44.1571 21.6063 43.7213L42.5838 34.48Z" fill="#131414"/>
<path id="Shape_2" d="M65 3C65 1.61929 63.8807 0.5 62.5 0.5H7.5C6.11929 0.5 5 1.61929 5 3V8H65V3ZM10 5.5H8.75C8.05964 5.5 7.5 4.94036 7.5 4.25C7.5 3.55964 8.05964 3 8.75 3H10C10.6904 3 11.25 3.55964 11.25 4.25C11.25 4.94036 10.6904 5.5 10 5.5ZM16.25 5.5H15C14.3096 5.5 13.75 4.94036 13.75 4.25C13.75 3.55964 14.3096 3 15 3H16.25C16.9404 3 17.5 3.55964 17.5 4.25C17.5 4.94036 16.9404 5.5 16.25 5.5ZM22.5 5.5H21.25C20.5596 5.5 20 4.94036 20 4.25C20 3.55964 20.5596 3 21.25 3H22.5C23.1904 3 23.75 3.55964 23.75 4.25C23.75 4.94036 23.1904 5.5 22.5 5.5ZM61.25 5.5H48.75C48.0596 5.5 47.5 4.94036 47.5 4.25C47.5 3.55964 48.0596 3 48.75 3H61.25C61.9404 3 62.5 3.55964 62.5 4.25C62.5 4.94036 61.9404 5.5 61.25 5.5Z" fill="#131414"/>
<path id="Path_2" d="M65 55.5V10.5H5V55.5C5 56.8807 6.11929 58 7.5 58H11.3188C6.69206 48.2677 8.48694 36.6959 15.8445 28.8225C23.202 20.949 34.6257 18.3751 44.6488 22.3326C54.672 26.29 61.2559 35.9739 61.25 46.75C61.2455 50.6449 60.3677 54.4892 58.6813 58H62.5C63.8807 58 65 56.8807 65 55.5Z" fill="#131414"/>
</g>
</g>
<defs>
<clipPath id="clip0_172_349">
<rect width="70" height="70" fill="white" transform="translate(0 0.5)"/>
</clipPath>
</defs>
</svg>
