<svg width="18" height="17" viewBox="0 0 18 17" fill="none" xmlns="http://www.w3.org/2000/svg">
<path d="M4.25198 1.9934C4.25174 2.4688 4.06266 2.92463 3.72634 3.26062C3.39001 3.59661 2.93399 3.78524 2.45859 3.785C1.98319 3.78476 1.52736 3.59568 1.19137 3.25936C0.855378 2.92303 0.666755 2.46701 0.666992 1.99161C0.66723 1.51621 0.856309 1.06038 1.19264 0.724388C1.52896 0.388398 1.98498 0.199775 2.46038 0.200012C2.93578 0.20025 3.39161 0.389329 3.7276 0.725655C4.06359 1.06198 4.25222 1.518 4.25198 1.9934V1.9934ZM4.30575 5.11234H0.720767V16.3333H4.30575V5.11234ZM9.97003 5.11234H6.40297V16.3333H9.93418V10.445C9.93418 7.16474 14.2093 6.86002 14.2093 10.445V16.3333H17.7495V9.22611C17.7495 3.69627 11.422 3.90241 9.93418 6.61803L9.97003 5.11234V5.11234Z" fill="#fff"/>
</svg>
