<svg width="18" height="17" viewBox="0 0 18 17" fill="none" xmlns="http://www.w3.org/2000/svg">
<path d="M4.25149 1.99358C4.25125 2.46898 4.06217 2.92482 3.72585 3.26081C3.38952 3.5968 2.9335 3.78542 2.4581 3.78518C1.9827 3.78494 1.52687 3.59586 1.19088 3.25954C0.85489 2.92321 0.666266 2.46719 0.666504 1.99179C0.666742 1.51639 0.855821 1.06056 1.19215 0.724571C1.52847 0.388581 1.98449 0.199958 2.45989 0.200196C2.93529 0.200433 3.39113 0.389513 3.72712 0.725838C4.0631 1.06216 4.25173 1.51819 4.25149 1.99358V1.99358ZM4.30527 5.11252H0.720279V16.3335H4.30527V5.11252ZM9.96954 5.11252H6.40248V16.3335H9.93369V10.4452C9.93369 7.16493 14.2088 6.8602 14.2088 10.4452V16.3335H17.749V9.22629C17.749 3.69645 11.4215 3.90259 9.93369 6.61822L9.96954 5.11252V5.11252Z" fill="#131414"/>
</svg>
