<svg width="70" height="70" viewBox="0 0 70 70" fill="none" xmlns="http://www.w3.org/2000/svg">
<g id="machine-learning 2" clip-path="url(#clip0_201_1463)">
<path id="Vector" d="M21.1176 23.7685C21.3035 23.9544 21.4197 24.2142 21.4197 24.4972C21.4197 24.7802 21.3035 25.0399 21.1176 25.2259C20.9316 25.4118 20.676 25.528 20.3889 25.528C20.1059 25.528 19.8461 25.4118 19.6602 25.2259C19.4742 25.0399 19.358 24.7802 19.358 24.4972C19.358 24.2142 19.4742 23.9544 19.6602 23.7685C19.8461 23.5825 20.1059 23.4663 20.3889 23.4663C20.676 23.4663 20.9316 23.5825 21.1176 23.7685ZM20.3889 44.4759C20.1059 44.4759 19.8461 44.588 19.6602 44.7739C19.4742 44.964 19.358 45.2196 19.358 45.5026C19.358 45.7897 19.4742 46.0454 19.6602 46.2355C19.8461 46.4214 20.1059 46.5335 20.3889 46.5335C20.676 46.5335 20.9316 46.4214 21.1176 46.2355C21.3035 46.0454 21.4197 45.7897 21.4197 45.5026C21.4197 45.2196 21.3035 44.964 21.1176 44.7739C20.9316 44.588 20.676 44.4759 20.3889 44.4759ZM20.3889 33.969C20.1059 33.969 19.8461 34.0853 19.6602 34.2712C19.4742 34.4571 19.358 34.7169 19.358 34.9999C19.358 35.287 19.4742 35.5427 19.6602 35.7286C19.8461 35.9146 20.1059 36.0308 20.3889 36.0308C20.676 36.0308 20.9316 35.9146 21.1176 35.7286C21.3035 35.5427 21.4197 35.287 21.4197 34.9999C21.4197 34.7169 21.3035 34.4571 21.1176 34.2712C20.9316 34.0853 20.676 33.969 20.3889 33.969ZM30.4814 43.5024V60.0003C30.4814 61.8255 29.7418 63.4812 28.5441 64.6747C27.3465 65.8724 25.6922 66.612 23.867 66.612C22.0377 66.612 20.3861 65.8724 19.1898 64.6747C17.9922 63.4812 17.2525 61.8269 17.2525 60.0003C17.2525 58.5319 17.7256 57.1825 18.5281 56.0901C19.3539 54.9663 20.5242 54.1105 21.8805 53.6839C22.4971 53.4939 22.8375 52.8431 22.6475 52.2265C22.4533 51.614 21.8025 51.2694 21.1859 51.4636C19.3484 52.0405 17.7639 53.1917 16.651 54.7107C16.2012 55.3232 15.8293 55.989 15.5463 56.7026C15.2168 56.8106 14.8791 56.9009 14.5305 56.9665C14.0342 57.0636 13.5105 57.1142 12.9719 57.1142C10.716 57.1142 8.6707 56.1995 7.19414 54.723C5.71348 53.2423 4.79883 51.1997 4.79883 48.9452C4.79883 48.3409 4.86445 47.7558 4.98887 47.1939C5.10918 46.636 5.28281 46.1042 5.5084 45.6093C5.53164 45.5628 5.55488 45.5163 5.57402 45.4657C5.80234 44.8614 5.5002 44.1901 4.8959 43.9618C3.5082 43.4314 2.29141 42.272 1.41504 40.7175C0.527734 39.1356 0 37.1546 0 34.9999C0 32.8452 0.527734 30.8642 1.41504 29.2878C2.29141 27.7292 3.5082 26.5753 4.8959 26.0435V26.0394C4.91914 26.0312 4.94238 26.0202 4.96562 26.012C5.55078 25.744 5.80645 25.055 5.53984 24.4698C5.30332 23.9503 5.11738 23.3966 4.98887 22.8114C4.86445 22.2495 4.79883 21.6644 4.79883 21.0601C4.79883 18.8042 5.71348 16.7589 7.19414 15.2823C8.6707 13.8017 10.7174 12.887 12.9719 12.887C13.5105 12.887 14.0342 12.9376 14.5305 13.0347C14.8791 13.1044 15.2168 13.1892 15.5463 13.2985C15.8293 14.0122 16.2012 14.6821 16.651 15.2905C17.7639 16.8095 19.3484 17.9647 21.1859 18.5417C21.8025 18.7317 22.4533 18.3899 22.6475 17.7747C22.8375 17.1622 22.4957 16.5073 21.8805 16.3173C20.5242 15.8907 19.3539 15.039 18.5281 13.9151C17.7256 12.8228 17.2525 11.4692 17.2525 10.005V10.0009C17.2525 8.17568 17.9922 6.52412 19.1898 5.32646C20.3875 4.12881 22.0377 3.38916 23.867 3.38916C25.6922 3.38916 27.3479 4.12881 28.5441 5.32646C29.7418 6.52412 30.4814 8.17842 30.4814 10.0036V26.5015H27.6131V24.4985C27.6131 23.8546 27.0895 23.3323 26.4469 23.3323H23.5484C23.3775 22.8716 23.1109 22.4601 22.7691 22.1196C22.1607 21.5112 21.3199 21.1353 20.3902 21.1353C19.4646 21.1353 18.6225 21.5112 18.0141 22.1196C17.4057 22.728 17.0256 23.5688 17.0256 24.4985C17.0256 25.4282 17.4057 26.269 18.0141 26.8774C18.6225 27.4858 19.4633 27.8618 20.3902 27.8618C21.3199 27.8618 22.1607 27.4858 22.7691 26.8774C23.1096 26.537 23.3775 26.1255 23.5484 25.6647H25.2807V27.669C25.2807 28.313 25.8043 28.8353 26.4469 28.8353H30.4814V33.8351H23.5484C23.3775 33.3771 23.1109 32.9628 22.7691 32.6265C22.1607 32.014 21.3199 31.638 20.3902 31.638C19.4646 31.638 18.6225 32.014 18.0141 32.6265C17.4057 33.2349 17.0256 34.0757 17.0256 35.0026C17.0256 35.9323 17.4057 36.7731 18.0141 37.3815C18.6225 37.9899 19.4633 38.3659 20.3902 38.3659C21.3199 38.3659 22.1607 37.9899 22.7691 37.3815C23.1096 37.0411 23.3775 36.6296 23.5484 36.1688H30.4814V41.1728H26.4469C25.8029 41.1728 25.2807 41.6923 25.2807 42.339V44.3392H23.5484C23.3775 43.8825 23.1109 43.4669 22.7691 43.1306C22.1607 42.5222 21.3199 42.1421 20.3902 42.1421C19.4646 42.1421 18.6225 42.5222 18.0141 43.1306C17.4057 43.739 17.0256 44.5798 17.0256 45.5067C17.0256 46.4364 17.4057 47.2772 18.0141 47.8856C18.6225 48.494 19.4633 48.87 20.3902 48.87C21.3199 48.87 22.1607 48.494 22.7691 47.8856C23.1096 47.5452 23.3775 47.1337 23.5484 46.6771H26.4469C27.0908 46.6771 27.6131 46.1534 27.6131 45.5067V43.5065H30.4814V43.5024ZM11.0072 34.9999C11.0072 33.6122 11.3449 32.3407 11.9137 31.3304C12.4605 30.3583 13.2125 29.6364 14.0684 29.311C14.6686 29.0827 14.9707 28.4087 14.7424 27.8071C14.5141 27.2069 13.84 26.9048 13.2385 27.1331C11.8631 27.6567 10.6928 28.7491 9.88203 30.1915C9.12187 31.5396 8.67344 33.2062 8.67344 35.0013C8.67344 36.7991 9.12324 38.4657 9.88203 39.811C10.6914 41.2562 11.8658 42.3458 13.2385 42.8694C13.8387 43.0978 14.5141 42.7956 14.7424 42.1954C14.9707 41.5952 14.6686 40.9198 14.0684 40.6915C13.2125 40.3661 12.4605 39.6456 11.9137 38.6722C11.3436 37.6591 11.0072 36.3876 11.0072 34.9999ZM69.9098 31.8718C69.851 31.7938 69.7621 31.7323 69.6541 31.694L65.4527 30.3296C64.9879 30.1778 64.5846 29.9222 64.2633 29.5817C63.9461 29.244 63.7123 28.8298 63.5893 28.3567C63.2912 27.2179 62.9152 26.1091 62.4695 25.0317C62.0197 23.9503 61.4975 22.8962 60.9041 21.8804C60.6594 21.462 60.5281 21.004 60.5172 20.5323C60.5022 20.0634 60.6061 19.6026 60.8275 19.1679L62.8346 15.2263C62.8893 15.121 62.9043 15.0171 62.8934 14.92C62.8783 14.823 62.8277 14.73 62.7416 14.6452L58.7426 10.6462C58.6605 10.5642 58.5648 10.5149 58.4678 10.4985C58.3748 10.4835 58.2668 10.5026 58.1615 10.5573L54.224 12.5616C53.7906 12.7831 53.3244 12.887 52.8555 12.8761C52.3865 12.861 51.9258 12.7325 51.5074 12.4851C50.4916 11.8917 49.4416 11.3694 48.3602 10.9237C47.2828 10.4739 46.1699 10.1021 45.0311 9.7999C44.558 9.67549 44.1437 9.44717 43.8061 9.12588C43.4656 8.80459 43.2086 8.40537 43.0582 7.94053L41.6937 3.73506C41.6582 3.62705 41.5967 3.54092 41.516 3.4835C41.4354 3.42607 41.3342 3.39053 41.218 3.39053H39.5555V20.7183C43.0473 20.9972 46.1904 22.5325 48.5229 24.869C51.1191 27.4612 52.7242 31.046 52.7242 35.004C52.7242 38.9647 51.1191 42.5454 48.5229 45.139C46.1904 47.4755 43.0473 49.0108 39.5555 49.2938V66.6175H41.218C41.3342 66.6175 41.4354 66.586 41.516 66.5286C41.598 66.4712 41.6596 66.381 41.6937 66.273L43.0582 62.0716C43.21 61.6067 43.4656 61.2034 43.8061 60.8821C44.1437 60.5649 44.558 60.3325 45.0311 60.2081C46.1699 59.9101 47.2828 59.5341 48.3602 59.0884C49.4416 58.6386 50.4916 58.1149 51.5074 57.523C51.9258 57.2782 52.3865 57.147 52.8555 57.136C53.3244 57.121 53.7893 57.2249 54.224 57.4464L58.1615 59.4534C58.2668 59.5081 58.3748 59.5273 58.4678 59.5122C58.5648 59.4972 58.6619 59.4466 58.7426 59.3605L62.7416 55.3614C62.8264 55.2794 62.877 55.1837 62.8934 55.0907C62.9057 54.9937 62.8893 54.8856 62.8346 54.7804L60.8275 50.8429C60.6061 50.4095 60.5022 49.9433 60.5172 49.4743C60.5295 49.0054 60.6607 48.5446 60.9041 48.1263C61.4975 47.1105 62.0197 46.0605 62.4695 44.979C62.9152 43.9017 63.2912 42.7888 63.5893 41.654C63.7137 41.1769 63.9461 40.7626 64.2633 40.4249C64.5846 40.0845 64.9879 39.8315 65.4527 39.6771L69.6541 38.3126C69.7621 38.2784 69.8523 38.2155 69.9098 38.1349C69.9686 38.0528 69.9986 37.953 69.9986 37.8368V32.1821C70 32.0577 69.9686 31.9538 69.9098 31.8718ZM39.5541 28.8339V33.8337H30.4814V36.1661H39.5541V41.17H30.4814V43.5024H39.5541V46.9437C42.402 46.6688 44.96 45.4015 46.8754 43.486C49.0451 41.3122 50.3904 38.3126 50.3904 34.9985C50.3904 31.6845 49.0451 28.6849 46.8754 26.5151C44.9613 24.6011 42.4033 23.3296 39.5541 23.0548V26.5001H30.4814V28.8325H39.5541V28.8339Z" fill="#131414"/>
</g>
<defs>
<clipPath id="clip0_201_1463">
<rect width="70" height="70" fill="white"/>
</clipPath>
</defs>
</svg>
