<svg width="70" height="70" viewBox="0 0 70 70" fill="none" xmlns="http://www.w3.org/2000/svg">
<g clip-path="url(#clip0_246_472)">
<path d="M57.3124 39.3368C58.1655 40.1899 58.696 41.3712 58.696 42.6741C58.696 43.9798 58.1655 45.1583 57.3124 46.0142C56.4565 46.8673 55.278 47.3936 53.9751 47.3936C52.6694 47.3936 51.4909 46.8673 50.6351 46.0142C49.7819 45.1583 49.2556 43.9798 49.2556 42.6741C49.2556 41.3726 49.7833 40.1899 50.6351 39.3368C51.4909 38.4837 52.6694 37.9532 53.9751 37.9532C55.278 37.9532 56.4565 38.4837 57.3124 39.3368ZM70.0013 41.6815V43.6694C70.0013 44.2628 69.6335 44.77 69.0675 44.9519L67.6565 45.4085C67.2149 45.552 66.9005 45.8774 66.7774 46.3231C66.4944 47.3157 66.0993 48.2604 65.6071 49.145C65.3829 49.5483 65.3747 50.0009 65.5839 50.4124L66.2579 51.7372C66.5286 52.2636 66.4288 52.8802 66.0105 53.3026L64.6036 54.7095C64.1853 55.1278 63.5687 55.2249 63.0382 54.9569L61.7134 54.2829C61.3032 54.0696 60.8493 54.0778 60.446 54.3061C59.5628 54.7983 58.6167 55.1935 57.6241 55.4724C57.1784 55.6009 56.853 55.914 56.7136 56.3556L56.2528 57.7665C56.071 58.3325 55.5665 58.6962 54.9704 58.6962H52.9825C52.3892 58.6962 51.8819 58.3311 51.7001 57.7665L51.2435 56.3556C51.0999 55.914 50.7745 55.5995 50.3288 55.4724C49.3362 55.1935 48.3915 54.7983 47.5069 54.3061C47.1036 54.0819 46.6511 54.0696 46.2396 54.2829L44.9147 54.9569C44.387 55.2249 43.7718 55.1278 43.3493 54.7095L41.9425 53.3026C41.5241 52.8802 41.4271 52.2636 41.695 51.7372L42.369 50.4124C42.5823 50.0022 42.5741 49.5483 42.3458 49.145C41.8536 48.2618 41.4585 47.3157 41.1796 46.3231C41.0511 45.8774 40.738 45.552 40.2964 45.4085L38.8855 44.9519C38.3194 44.77 37.9558 44.2614 37.9558 43.6694V41.6815C37.9558 41.0841 38.3194 40.581 38.8855 40.3991L40.3005 39.9384C40.738 39.7948 41.0524 39.4735 41.1796 39.0278C41.4626 38.0353 41.8536 37.0905 42.3458 36.206C42.5741 35.8026 42.5823 35.3501 42.369 34.9386L41.695 33.6138C41.4271 33.0833 41.5241 32.4667 41.9425 32.0483L43.3493 30.6415C43.7718 30.2231 44.3884 30.122 44.9147 30.394L46.2396 31.0681C46.6497 31.2772 47.1036 31.269 47.5069 31.0448C48.3901 30.5526 49.3362 30.1575 50.3288 29.8745C50.7745 29.7501 51.0999 29.437 51.2435 28.9954L51.7001 27.5845C51.8819 27.0185 52.3905 26.6507 52.9825 26.6507H54.9704C55.5679 26.6507 56.071 27.0185 56.2528 27.5845L56.7136 28.9954C56.853 29.437 57.1784 29.7515 57.6241 29.8745C58.6167 30.1575 59.5614 30.5526 60.446 31.0448C60.8493 31.269 61.3019 31.2772 61.7134 31.0681L63.0382 30.394C63.5687 30.1233 64.1853 30.2231 64.6036 30.6415L66.0105 32.0483C66.4288 32.4667 66.53 33.0833 66.2579 33.6138L65.5839 34.9386C65.3747 35.3487 65.3829 35.8026 65.6071 36.206C66.0993 37.0892 66.4944 38.0353 66.7774 39.0278C66.9019 39.4735 67.2149 39.7989 67.6565 39.9384L69.0675 40.3991C69.6335 40.581 70.0013 41.0841 70.0013 41.6815ZM60.9519 42.6741C60.9519 40.7478 60.1726 39.0046 58.9093 37.7413C57.646 36.478 55.9015 35.6946 53.9751 35.6946C52.0446 35.6946 50.3015 36.478 49.0382 37.7413C47.7749 39.0046 46.9956 40.7491 46.9956 42.6741C46.9956 44.6046 47.7749 46.3478 49.0382 47.611C50.3015 48.8743 52.046 49.6536 53.9751 49.6536C55.9015 49.6536 57.6446 48.8743 58.9093 47.611C60.1726 46.3478 60.9519 44.6032 60.9519 42.6741ZM38.8034 57.6024H33.8692L32.3653 53.4093H21.6028L20.103 57.6024H15.1688C14.5454 57.6024 14.0368 58.1069 14.0368 58.7304C14.0368 59.3538 14.544 59.8624 15.1688 59.8624H38.8021C39.4255 59.8624 39.9341 59.3552 39.9341 58.7304C39.9354 58.1056 39.4282 57.6024 38.8034 57.6024ZM35.7423 41.0608H-0.00146484V13.6733C-0.00146484 11.7278 1.59131 10.1392 3.53682 10.1392H50.4382C52.3837 10.1392 53.9765 11.7278 53.9765 13.6733V24.3894H52.9812C51.4075 24.3894 50.0362 25.3888 49.5509 26.8858L49.2364 27.8429C48.4106 28.1067 47.6081 28.4403 46.837 28.8395L45.9374 28.3815C44.5388 27.6679 42.8599 27.9317 41.7483 29.0446L40.3415 30.4515C39.2286 31.5603 38.9661 33.2378 39.6784 34.6405L40.1351 35.5401C39.7399 36.3112 39.4063 37.1138 39.1425 37.9395L38.1813 38.2499C36.8894 38.6696 35.9665 39.7552 35.7423 41.0608ZM14.2132 26.164L21.6931 21.9858C22.2358 21.6837 22.4327 20.9974 22.1306 20.4546C21.8284 19.9118 21.1421 19.7149 20.5993 20.0171L11.3681 25.1714C11.1862 25.2726 11.0276 25.4229 10.9183 25.6171C10.6161 26.1599 10.813 26.8462 11.3558 27.1483L20.5993 32.3108C21.1421 32.613 21.8284 32.4188 22.1306 31.8733C22.4327 31.3306 22.2358 30.6442 21.6931 30.3421L14.2132 26.164ZM29.1688 16.6497C28.5604 16.5103 27.9562 16.8903 27.8167 17.4987L23.9612 34.3302C23.8218 34.9345 24.2019 35.5388 24.8062 35.6782C25.4146 35.8177 26.0188 35.4376 26.1583 34.8292L30.0138 18.0019C30.1532 17.3935 29.7731 16.7892 29.1688 16.6497ZM33.3743 32.3108L42.6179 27.1483C43.1606 26.8462 43.3575 26.1599 43.0554 25.6171C42.9474 25.4229 42.7874 25.2726 42.6056 25.1714L33.3743 20.0171C32.8315 19.7149 32.1452 19.9118 31.8431 20.4546C31.5409 20.9974 31.7378 21.6837 32.2806 21.9858L39.7605 26.164L32.2806 30.3421C31.7378 30.6442 31.5409 31.3306 31.8431 31.8733C32.1452 32.4188 32.8315 32.613 33.3743 32.3108ZM38.1841 47.0997C36.6884 46.6157 35.6917 45.2431 35.6917 43.6694V43.3208H-0.00146484V47.6151C-0.00146484 49.5565 1.59131 51.1493 3.53682 51.1493H39.4897C39.5444 51.0017 39.606 50.8554 39.6798 50.7118L40.1364 49.8122C39.7413 49.0411 39.4077 48.2386 39.1397 47.4128L38.1841 47.0997Z" fill="#217191"/>
</g>
<defs>
<clipPath id="clip0_246_472">
<rect width="70" height="70" fill="white"/>
</clipPath>
</defs>
</svg>
