<svg width="70" height="70" viewBox="0 0 70 70" fill="none" xmlns="http://www.w3.org/2000/svg">
<g clip-path="url(#clip0_71_1034)">
<path fill-rule="evenodd" clip-rule="evenodd" d="M41.251 37.512H36.251C35.5606 37.512 35.001 38.0716 35.001 38.762V43.7619C35.001 45.8329 36.6798 47.5119 38.751 47.5119C40.822 47.5119 42.5009 45.8331 42.5009 43.7619V38.762C42.5009 38.0716 41.9412 37.512 41.251 37.512Z" fill="#217191"/>
<path d="M16.251 38.762C16.2376 29.0367 22.4742 20.4034 31.7113 17.3606C40.9484 14.3178 51.0951 17.5543 56.8642 25.3837C62.6334 33.213 62.7192 43.863 57.0769 51.7844L59.7905 54.4981C59.9985 54.4395 60.2132 54.4084 60.4293 54.4056C61.0222 54.4074 61.5946 54.6226 62.0418 55.0118H62.6356C63.284 54.9651 63.778 54.4114 63.7505 53.7618V10.0122H0.00109118V53.7618C-0.0263256 54.4105 0.466139 54.9638 1.11354 55.0118H23.2171C23.0921 54.8943 22.9671 54.7931 22.8421 54.6719C18.6084 50.4617 16.2349 44.7327 16.251 38.762ZM8.38485 18.3959L4.63487 22.1458C4.14436 22.6195 3.36483 22.6127 2.88261 22.1306C2.4004 21.6484 2.39372 20.8689 2.86741 20.3784L5.73361 17.5122L2.86741 14.646C2.39372 14.1555 2.40052 13.3759 2.88261 12.8937C3.36471 12.4115 4.14436 12.4048 4.63487 12.8785L8.38485 16.6285C8.87283 17.1165 8.87283 17.9078 8.38485 18.3959ZM10.0011 21.2621C10.0011 20.5717 10.5607 20.0121 11.2511 20.0121H16.251C16.9414 20.0121 17.501 20.5717 17.501 21.2621C17.501 21.9524 16.9414 22.5121 16.251 22.5121H11.2511C10.5607 22.5121 10.0011 21.9524 10.0011 21.2621Z" fill="#217191"/>
<path fill-rule="evenodd" clip-rule="evenodd" d="M38.751 33.762C38.0606 33.762 37.501 34.3216 37.501 35.012H40.001C40.001 34.3216 39.4413 33.762 38.751 33.762Z" fill="#217191"/>
<path d="M63.7505 1.2622C63.778 0.613532 63.2855 0.0602439 62.6381 0.012207H1.11354C0.466024 0.0602439 -0.0263253 0.613532 0.00109142 1.2622V7.51218H63.7505V1.2622ZM3.75096 5.01219C3.06059 5.01219 2.50097 4.45257 2.50097 3.76219C2.50097 3.07182 3.06059 2.5122 3.75096 2.5122C4.44134 2.5122 5.00096 3.07182 5.00096 3.76219C5.00096 4.45257 4.44134 5.01219 3.75096 5.01219ZM8.75095 5.01219C8.06058 5.01219 7.50095 4.45257 7.50095 3.76219C7.50095 3.07182 8.06058 2.5122 8.75095 2.5122C9.44132 2.5122 10.0009 3.07182 10.0009 3.76219C10.0009 4.45257 9.44132 5.01219 8.75095 5.01219ZM13.7509 5.01219C13.0606 5.01219 12.5009 4.45257 12.5009 3.76219C12.5009 3.07182 13.0606 2.5122 13.7509 2.5122C14.4413 2.5122 15.0009 3.07182 15.0009 3.76219C15.0009 4.45257 14.4413 5.01219 13.7509 5.01219ZM62.1342 4.1284C62.4592 4.4422 62.5895 4.90702 62.4751 5.34407C62.3607 5.78113 62.0194 6.12245 61.5823 6.23684C61.1453 6.35123 60.6806 6.22095 60.3666 5.89598L60.0004 5.52977L59.6342 5.89598C59.1437 6.36966 58.3642 6.36287 57.882 5.88077C57.3998 5.39856 57.3931 4.61903 57.8668 4.12852L58.233 3.76231L57.8668 3.3961C57.3931 2.90559 57.3999 2.12606 57.882 1.64385C58.3642 1.16164 59.1437 1.15496 59.6342 1.62864L60.0004 1.99485L60.3666 1.62864C60.6804 1.30367 61.1453 1.17339 61.5823 1.28778C62.0194 1.40217 62.3607 1.74349 62.4751 2.18055C62.5895 2.6176 62.4592 3.08231 62.1342 3.39622L61.768 3.76243L62.1342 4.1284Z" fill="#217191"/>
<path fill-rule="evenodd" clip-rule="evenodd" d="M69.2681 65.7442L60.4295 56.9055L56.8945 60.4404L65.7332 69.2791C66.7222 70.2238 68.2793 70.2238 69.2681 69.2791C70.2441 68.3029 70.2441 66.7205 69.2681 65.7442Z" fill="#217191"/>
<path fill-rule="evenodd" clip-rule="evenodd" d="M55.5007 53.7444C55.222 54.0544 54.957 54.3693 54.6595 54.6718C54.3619 54.9743 54.0345 55.2331 53.7295 55.5118L56.0069 57.7905L57.7769 56.0205L55.5007 53.7444Z" fill="#217191"/>
<path d="M52.892 24.6195C46.1449 17.8731 35.5718 16.8324 27.6387 22.1338C19.7056 27.4351 16.6221 37.602 20.2738 46.4168C23.9256 55.2316 33.2955 60.2396 42.6534 58.3778C52.0112 56.516 58.751 48.3032 58.7507 38.7619C58.7575 33.4559 56.6491 28.3662 52.892 24.6195ZM51.1258 51.1368C45.2227 57.0405 35.9713 57.9521 29.0293 53.3143C22.0874 48.6765 19.3883 39.7807 22.5827 32.0673C25.7771 24.3538 33.9754 19.9712 42.1638 21.5994C50.3522 23.2275 56.2501 30.4133 56.2507 38.7619C56.2573 43.4044 54.4127 47.858 51.1258 51.1368Z" fill="#217191"/>
<path d="M49.3571 28.1557C44.2969 23.0958 36.3669 22.315 30.417 26.2909C24.4671 30.2668 22.1543 37.8921 24.8931 44.5033C27.6319 51.1146 34.6594 54.8704 41.6779 53.4741C48.6963 52.0777 53.7512 45.9179 53.7508 38.7619C53.7558 34.7827 52.1745 30.9657 49.3571 28.1557ZM29.9136 29.9233C32.2523 27.5717 35.4345 26.2533 38.751 26.2621C39.4414 26.2621 40.001 26.8217 40.001 27.5121C40.001 28.2025 39.4414 28.7621 38.751 28.7621C36.0977 28.7546 33.5517 29.8092 31.681 31.6908C31.1905 32.1645 30.411 32.1577 29.9288 31.6756C29.4466 31.1933 29.4398 30.4137 29.9136 29.9233ZM47.5008 42.5118H45.0008V43.2444L47.1346 45.3781C47.4596 45.6919 47.5899 46.1567 47.4755 46.5938C47.3611 47.0309 47.0198 47.3722 46.5827 47.4866C46.1457 47.601 45.681 47.4707 45.3671 47.1457L44.4758 46.2544C43.4866 48.5358 41.2374 50.012 38.7509 50.012C36.2643 50.012 34.0151 48.5357 33.0259 46.2544L32.1347 47.1457C31.6442 47.6194 30.8646 47.6126 30.3824 47.1305C29.9002 46.6483 29.8935 45.8688 30.3672 45.3782L32.501 43.2445V42.5119H30.001C29.3106 42.5119 28.751 41.9523 28.751 41.2619C28.751 40.5716 29.3106 40.0119 30.001 40.0119H32.501V39.2794L30.3672 37.1456C29.8935 36.6551 29.9003 35.8756 30.3824 35.3934C30.8645 34.9112 31.6442 34.9045 32.1347 35.3782L33.2697 36.5132C33.71 35.9293 34.3119 35.4873 35.001 35.242V35.012C35.001 32.941 36.6799 31.262 38.751 31.262C40.822 31.262 42.501 32.9408 42.501 35.012V35.242C43.1898 35.4869 43.7917 35.9285 44.2323 36.512L45.3673 35.377C45.8578 34.9033 46.6374 34.9101 47.1195 35.3922C47.6017 35.8744 47.6084 36.654 47.1347 37.1445L45.001 39.2794V40.0119H47.5009C48.1913 40.0119 48.7509 40.5716 48.7509 41.2619C48.7508 41.9522 48.1912 42.5118 47.5008 42.5118Z" fill="#217191"/>
</g>
<defs>
<clipPath id="clip0_71_1034">
<rect width="70" height="70" fill="white"/>
</clipPath>
</defs>
</svg>
