<svg width="70" height="70" viewBox="0 0 70 70" fill="none" xmlns="http://www.w3.org/2000/svg">
<path d="M37.1875 4.375H10.9375C7.31312 4.375 4.375 7.31312 4.375 10.9375V59.0625C4.375 62.6869 7.31312 65.625 10.9375 65.625H37.1875C40.8119 65.625 43.75 62.6869 43.75 59.0625V10.9375C43.75 7.31312 40.8119 4.375 37.1875 4.375ZM41.5625 57.9688C41.5625 60.984 39.1101 63.4375 36.0938 63.4375H12.0312C9.01596 63.4375 6.5625 60.984 6.5625 57.9688V12.0312C6.5625 9.01596 9.01596 6.5625 12.0312 6.5625H36.0938C39.1101 6.5625 41.5625 9.01596 41.5625 12.0312V57.9688Z" fill="#217191"/>
<path d="M36.0938 8.75H28.4375C28.4375 11.1662 26.4787 13.125 24.0625 13.125C21.6463 13.125 19.6875 11.1662 19.6875 8.75H12.0312C10.2219 8.75 8.75 10.2219 8.75 12.0312V57.9688C8.75 59.7781 10.2219 61.25 12.0312 61.25H36.0938C37.9031 61.25 39.375 59.7781 39.375 57.9688V12.0312C39.375 10.2219 37.9031 8.75 36.0938 8.75ZM21.5012 41.8327C21.9562 42.2311 22.0021 42.9222 21.6048 43.3762C21.3879 43.624 21.0857 43.75 20.7812 43.75C20.5249 43.75 20.2686 43.6613 20.0613 43.4798L11.3113 35.8235C11.0732 35.6152 10.9375 35.3151 10.9375 35C10.9375 34.6849 11.0732 34.3848 11.3113 34.1765L20.0613 26.5202C20.5164 26.1218 21.2064 26.1656 21.6048 26.6238C22.0021 27.0778 21.9562 27.7689 21.5012 28.1673L13.6922 35L21.5012 41.8327ZM36.8137 35.8235L28.0637 43.4798C27.8564 43.6613 27.6001 43.75 27.3438 43.75C27.0393 43.75 26.7371 43.624 26.5202 43.3762C26.1229 42.9222 26.1688 42.2311 26.6238 41.8327L34.4328 35L26.6238 28.1673C26.1688 27.7689 26.1229 27.0778 26.5202 26.6238C26.9186 26.1656 27.6086 26.1218 28.0637 26.5202L36.8137 34.1765C37.0518 34.3848 37.1875 34.6849 37.1875 35C37.1875 35.3151 37.0518 35.6152 36.8137 35.8235Z" fill="#217191"/>
<path d="M64.512 39.1496L61.4294 37.4107C61.5491 36.5968 61.6089 35.7915 61.6089 35C61.6089 34.2085 61.5491 33.4032 61.4294 32.5893L64.512 30.8504C65.0247 30.5609 65.3986 30.0781 65.5502 29.511C65.7019 28.9427 65.6207 28.3382 65.3217 27.8319L60.8441 20.2547C60.2396 19.2314 58.9279 18.8768 57.8854 19.4621L54.7494 21.232C53.4271 20.2151 51.9617 19.3842 50.415 18.7711V15.3125C50.415 14.1045 49.4366 13.125 48.2275 13.125H45.9375V26.25C50.7701 26.25 54.6875 30.1674 54.6875 35C54.6875 39.8326 50.7701 43.75 45.9375 43.75V56.875H48.2275C49.4366 56.875 50.415 55.8955 50.415 54.6875V51.23C51.9617 50.6158 53.4271 49.7838 54.7494 48.768L57.8854 50.5379C58.9279 51.1243 60.2396 50.7697 60.8441 49.7453L65.3217 42.1681C65.6207 41.6618 65.7019 41.0573 65.5502 40.489C65.3986 39.9219 65.0247 39.4391 64.512 39.1496Z" fill="#217191"/>
</svg>
