<svg width="46" height="46" viewBox="0 0 46 46" fill="none" xmlns="http://www.w3.org/2000/svg">
<path fill-rule="evenodd" clip-rule="evenodd" d="M1 23C1 10.8497 10.8497 1 23 1C35.1503 1 45 10.8497 45 23C45 35.1503 35.1503 45 23 45C10.8497 45 1 35.1503 1 23Z" stroke="#DBDBDB"/>
<path fill-rule="evenodd" clip-rule="evenodd" d="M22.3411 18.8821L22.3873 19.6433L21.6178 19.5501C18.8171 19.1928 16.3703 17.981 14.2929 15.9458L13.2772 14.936L13.0156 15.6817C12.4617 17.344 12.8156 19.0996 13.9697 20.2803C14.5853 20.9328 14.4468 21.026 13.385 20.6376C13.0156 20.5133 12.6925 20.4201 12.6617 20.4667C12.554 20.5755 12.9233 21.9892 13.2157 22.5485C13.6158 23.3253 14.4314 24.0865 15.3239 24.5371L16.078 24.8944L15.1854 24.9099C14.3237 24.9099 14.2929 24.9255 14.3852 25.2517C14.693 26.2615 15.9087 27.3335 17.2629 27.7996L18.217 28.1258L17.386 28.623C16.1549 29.3376 14.7084 29.7415 13.2619 29.7726C12.5694 29.7881 12 29.8503 12 29.8969C12 30.0522 13.8774 30.9222 14.97 31.264C18.2477 32.2739 22.1411 31.8389 25.0649 30.1144C27.1423 28.8871 29.2198 26.448 30.1893 24.0865C30.7125 22.8281 31.2357 20.5289 31.2357 19.4258C31.2357 18.7112 31.2818 18.618 32.1436 17.7635C32.6514 17.2664 33.1285 16.7226 33.2208 16.5673C33.3747 16.2721 33.3593 16.2721 32.5745 16.5362C31.2665 17.0023 31.0818 16.9401 31.7281 16.241C32.2052 15.7439 32.7745 14.8428 32.7745 14.5787C32.7745 14.5321 32.5437 14.6098 32.2821 14.7496C32.0051 14.9049 31.3896 15.138 30.9279 15.2778L30.0969 15.5419L29.3429 15.0292C28.9274 14.7496 28.3426 14.4389 28.0349 14.3456C27.2501 14.1281 26.0497 14.1592 25.3419 14.4078C23.4183 15.1069 22.2026 16.909 22.3411 18.8821Z" fill="#1D1E25"/>
</svg>
