<svg width="46" height="46" viewBox="0 0 46 46" fill="none" xmlns="http://www.w3.org/2000/svg">
<path fill-rule="evenodd" clip-rule="evenodd" d="M1 23C1 10.8497 10.8497 1 23 1C35.1503 1 45 10.8497 45 23C45 35.1503 35.1503 45 23 45C10.8497 45 1 35.1503 1 23Z" stroke="#DBDBDB"/>
<path fill-rule="evenodd" clip-rule="evenodd" d="M23.002 11.2666C19.8154 11.2666 19.4155 11.2805 18.1639 11.3375C16.9148 11.3947 16.0622 11.5924 15.3161 11.8826C14.5444 12.1823 13.8898 12.5832 13.2376 13.2356C12.5849 13.8878 12.184 14.5424 11.8833 15.3139C11.5924 16.0602 11.3944 16.9131 11.3382 18.1617C11.2822 19.4133 11.2676 19.8134 11.2676 23.0001C11.2676 26.1867 11.2818 26.5854 11.3385 27.8369C11.3959 29.0861 11.5937 29.9387 11.8836 30.6847C12.1835 31.4565 12.5844 32.1111 13.2368 32.7633C13.8888 33.4159 14.5434 33.8178 15.3146 34.1175C16.0612 34.4077 16.9141 34.6054 18.1629 34.6626C19.4145 34.7196 19.8142 34.7335 23.0005 34.7335C26.1874 34.7335 26.5861 34.7196 27.8377 34.6626C29.0868 34.6054 29.9404 34.4077 30.6869 34.1175C31.4584 33.8178 32.1121 33.4159 32.764 32.7633C33.4167 32.1111 33.8176 31.4565 34.1182 30.685C34.4067 29.9387 34.6047 29.0858 34.6634 27.8372C34.7196 26.5856 34.7342 26.1867 34.7342 23.0001C34.7342 19.8134 34.7196 19.4135 34.6634 18.162C34.6047 16.9128 34.4067 16.0602 34.1182 15.3142C33.8176 14.5424 33.4167 13.8878 32.764 13.2356C32.1113 12.5829 31.4587 12.1821 30.6862 11.8826C29.9382 11.5924 29.0851 11.3947 27.836 11.3375C26.5844 11.2805 26.1859 11.2666 22.9983 11.2666H23.002ZM21.9494 13.381C22.2618 13.3805 22.6104 13.381 23.002 13.381C26.1348 13.381 26.5061 13.3923 27.7433 13.4485C28.8873 13.5008 29.5082 13.692 29.9218 13.8526C30.4693 14.0652 30.8597 14.3195 31.2701 14.7301C31.6808 15.1408 31.935 15.5319 32.1482 16.0795C32.3088 16.4926 32.5002 17.1135 32.5523 18.2575C32.6085 19.4944 32.6207 19.866 32.6207 22.9973C32.6207 26.1287 32.6085 26.5003 32.5523 27.7372C32.4999 28.8812 32.3088 29.5021 32.1482 29.9152C31.9355 30.4627 31.6808 30.8526 31.2701 31.2631C30.8595 31.6737 30.4696 31.928 29.9218 32.1406C29.5087 32.302 28.8873 32.4926 27.7433 32.5449C26.5064 32.6012 26.1348 32.6134 23.002 32.6134C19.8689 32.6134 19.4976 32.6012 18.2607 32.5449C17.1167 32.4921 16.4958 32.301 16.0819 32.1404C15.5344 31.9277 15.1432 31.6735 14.7326 31.2628C14.3219 30.8522 14.0677 30.462 13.8545 29.9142C13.6939 29.5011 13.5025 28.8802 13.4504 27.7362C13.3942 26.4993 13.383 26.1277 13.383 22.9944C13.383 19.8611 13.3942 19.4915 13.4504 18.2546C13.5028 17.1106 13.6939 16.4897 13.8545 16.0761C14.0672 15.5285 14.3219 15.1374 14.7326 14.7267C15.1432 14.316 15.5344 14.0618 16.0819 13.8487C16.4955 13.6873 17.1167 13.4967 18.2607 13.4441C19.3431 13.3952 19.7625 13.3805 21.9494 13.3781V13.381ZM29.2652 15.3293C28.4878 15.3293 27.8572 15.9592 27.8572 16.7368C27.8572 17.5141 28.4878 18.1448 29.2652 18.1448C30.0425 18.1448 30.6732 17.5141 30.6732 16.7368C30.6732 15.9595 30.0425 15.3293 29.2652 15.3293ZM23.002 16.9744C19.6744 16.9744 16.9764 19.6724 16.9764 23C16.9764 26.3277 19.6744 29.0244 23.002 29.0244C26.3297 29.0244 29.0267 26.3277 29.0267 23C29.0267 19.6724 26.3297 16.9744 23.002 16.9744ZM23.002 19.0889C25.1619 19.0889 26.9131 20.8398 26.9131 23C26.9131 25.16 25.1619 26.9112 23.002 26.9112C20.8418 26.9112 19.0908 25.16 19.0908 23C19.0908 20.8398 20.8418 19.0889 23.002 19.0889Z" fill="#1D1E25"/>
</svg>
