<svg width="46" height="46" viewBox="0 0 46 46" fill="none" xmlns="http://www.w3.org/2000/svg">
<path fill-rule="evenodd" clip-rule="evenodd" d="M1 23C1 10.8497 10.8497 1 23 1C35.1503 1 45 10.8497 45 23C45 35.1503 35.1503 45 23 45C10.8497 45 1 35.1503 1 23Z" stroke="#DBDBDB"/>
<path d="M31.5637 29.3594L32.5391 23H26.4375V18.875C26.4375 17.1348 27.2883 15.4375 30.0211 15.4375H32.7969V10.0234C32.7969 10.0234 30.2789 9.59375 27.8727 9.59375C22.8453 9.59375 19.5625 12.6402 19.5625 18.1531V23H13.9766V29.3594H19.5625V44.7336C20.684 44.9098 21.8313 45 23 45C24.1688 45 25.316 44.9098 26.4375 44.7336V29.3594H31.5637Z" fill="#1D1E25"/>
</svg>
