<svg width="46" height="46" viewBox="0 0 46 46" fill="none" xmlns="http://www.w3.org/2000/svg">
<path fill-rule="evenodd" clip-rule="evenodd" d="M1 23C1 10.8497 10.8497 1 23 1C35.1503 1 45 10.8497 45 23C45 35.1503 35.1503 45 23 45C10.8497 45 1 35.1503 1 23Z" stroke="#DBDBDB"/>
<path d="M16.8764 14.5875C16.8441 13.1187 15.7938 12 14.0882 12C12.3826 12 11.2676 13.1187 11.2676 14.5875C11.2676 16.0258 12.3497 17.1767 14.0235 17.1767H14.0553C15.7938 17.1767 16.8764 16.0258 16.8764 14.5875Z" fill="#1D1E25"/>
<path d="M16.5481 19.2214H11.5624V34.2013H16.5481V19.2214Z" fill="#1D1E25"/>
<path d="M28.788 18.8696C32.0688 18.8696 34.5284 21.0111 34.5284 25.6123L34.5282 34.2013H29.5427V26.187C29.5427 24.174 28.8212 22.8004 27.0164 22.8004C25.639 22.8004 24.8186 23.7264 24.4582 24.6208C24.3264 24.9414 24.294 25.388 24.294 25.8357V34.2017H19.3078C19.3078 34.2017 19.3735 20.6274 19.3078 19.2218H24.294V21.3436C24.9558 20.3236 26.1409 18.8696 28.788 18.8696Z" fill="#1D1E25"/>
</svg>
