<svg width="70" height="70" viewBox="0 0 70 70" fill="none" xmlns="http://www.w3.org/2000/svg">
<g id="ux-design">
<g id="_x31_8">
<path id="Vector" d="M62.7966 11.5784L56.2341 5.01587C55.3796 4.16138 53.9954 4.16138 53.1409 5.01587L46.5784 11.5784C45.7239 12.4329 45.7239 13.8171 46.5784 14.6716L52.5 20.5933V24.0625H45.9375C44.7284 24.0625 43.75 25.0409 43.75 26.25V32.8125H48.125V28.4375H54.6875C55.8966 28.4375 56.875 27.4591 56.875 26.25V20.5933L62.7966 14.6716C63.6511 13.8171 63.6511 12.4329 62.7966 11.5784Z" fill="#131414"/>
<path id="Vector_2" d="M37.1875 24.0625H30.625V19.6875H32.8125C34.0205 19.6875 35 18.7091 35 17.5V8.75C35 7.54089 34.0205 6.5625 32.8125 6.5625H24.0625C22.8545 6.5625 21.875 7.54089 21.875 8.75V17.5C21.875 18.7091 22.8545 19.6875 24.0625 19.6875H26.25V26.25C26.25 27.4591 27.2295 28.4375 28.4375 28.4375H35V32.8125H39.375V26.25C39.375 25.0409 38.3966 24.0625 37.1875 24.0625Z" fill="#131414"/>
<path id="Vector_3" d="M10.9375 10.9371C13.2771 10.9371 15.518 11.6467 17.5 12.9658V10.9375C17.5 6.89092 13.8191 3.68831 9.62959 4.50221C6.51403 5.1073 4.375 8.02018 4.375 11.194V12.9658C6.35702 11.6467 8.59793 10.9371 10.9375 10.9371Z" fill="#131414"/>
<path id="Vector_4" d="M10.9375 48.1245C8.61087 48.1245 6.39093 48.9997 4.51465 50.6057L9.11742 60.2758C9.52331 60.8846 10.2058 61.2499 10.9375 61.2499C11.6692 61.2499 12.3517 60.8846 12.7576 60.2758L17.3603 50.6057C15.4841 48.9997 13.2641 48.1245 10.9375 48.1245Z" fill="#131414"/>
<path id="Vector_5" d="M6.5625 14.2607C5.79826 14.661 5.05686 15.1285 4.375 15.7314V47.9658C5.07154 47.5022 5.80908 47.1432 6.5625 46.8345V14.2607Z" fill="#131414"/>
<path id="Vector_6" d="M13.125 13.42C12.4096 13.2448 11.6826 13.1245 10.9375 13.1245C10.1924 13.1245 9.46537 13.2448 8.75 13.42V46.1733C9.46777 46.0335 10.1948 45.937 10.9375 45.937C11.6802 45.937 12.4072 46.0335 13.125 46.1733V13.42Z" fill="#131414"/>
<path id="Vector_7" d="M15.3125 14.2607V46.8345C16.0659 47.1432 16.8035 47.5022 17.5 47.9658V15.7314C16.8181 15.1285 16.0767 14.661 15.3125 14.2607Z" fill="#131414"/>
<path id="Vector_8" d="M59.0625 65.625H24.0625C20.4381 65.625 17.5 62.6869 17.5 59.0625L65.625 59.0625C65.625 62.6869 62.6869 65.625 59.0625 65.625Z" fill="#131414"/>
<path id="Vector_9" d="M56.875 35H26.25C23.8338 35 21.875 36.9587 21.875 39.375V56.875H61.25V39.375C61.25 36.9587 59.2912 35 56.875 35ZM35 52.5C35 50.0837 36.9588 48.125 39.375 48.125H41.5625C39.1463 48.125 37.1875 46.1662 37.1875 43.75C37.1875 41.3337 39.1463 39.375 41.5625 39.375C43.9787 39.375 45.9375 41.3337 45.9375 43.75C45.9375 46.1662 43.9787 48.125 41.5625 48.125H43.75C46.1662 48.125 48.125 50.0837 48.125 52.5H35Z" fill="#131414"/>
</g>
</g>
</svg>
