<svg width="70" height="70" viewBox="0 0 70 70" fill="none" xmlns="http://www.w3.org/2000/svg">
<g id="web-development">
<g id="Icon">
<path id="Vector" d="M2.1875 19.6875V60.1562C2.18845 61.0262 2.53446 61.8602 3.1496 62.4754C3.76475 63.0905 4.5988 63.4366 5.46875 63.4375H64.5312C65.4012 63.4366 66.2352 63.0905 66.8504 62.4754C67.4655 61.8602 67.8116 61.0262 67.8125 60.1562V19.6875H2.1875ZM54.6875 42.6562C54.6866 43.5262 54.3405 44.3602 53.7254 44.9754C53.1102 45.5905 52.2762 45.9366 51.4062 45.9375H50.807C50.4489 47.2314 49.9315 48.4758 49.2668 49.6423L50.4679 50.8434C50.6711 51.0465 50.8323 51.2876 50.9423 51.5531C51.0523 51.8185 51.1089 52.1031 51.1088 52.3904C51.1088 52.6777 51.0521 52.9622 50.942 53.2276C50.832 53.493 50.6707 53.7341 50.4674 53.9372L47.3741 57.0305C46.9575 57.4284 46.4036 57.6505 45.8275 57.6505C45.2514 57.6505 44.6974 57.4284 44.2809 57.0305L43.0798 55.8294C41.9133 56.4941 40.6689 57.0114 39.375 57.3695V59.0625C39.3744 59.6425 39.1438 60.1985 38.7337 60.6087C38.3235 61.0188 37.7675 61.2494 37.1875 61.25H32.8125C32.2325 61.2494 31.6765 61.0188 31.2663 60.6087C30.8562 60.1985 30.6256 59.6425 30.625 59.0625V57.3695C29.3311 57.0114 28.0867 56.494 26.9202 55.8293L25.7191 57.0304C25.3088 57.4403 24.7525 57.6705 24.1725 57.6705C23.5925 57.6705 23.0363 57.4403 22.6259 57.0304L19.5321 53.9366C19.1225 53.5261 18.8924 52.9699 18.8924 52.39C18.8924 51.8101 19.1225 51.2538 19.5321 50.8434L20.7332 49.6423C20.0685 48.4758 19.5511 47.2314 19.193 45.9375H17.5C16.92 45.9369 16.364 45.7063 15.9538 45.2962C15.5437 44.886 15.3131 44.33 15.3125 43.75V39.375C15.3131 38.795 15.5437 38.239 15.9538 37.8288C16.364 37.4187 16.92 37.1881 17.5 37.1875H19.193C19.5511 35.8936 20.0685 34.6492 20.7332 33.4827L19.5321 32.2816C19.1225 31.8712 18.8924 31.3149 18.8924 30.735C18.8924 30.1551 19.1225 29.5989 19.5321 29.1884L22.6259 26.0946C23.0363 25.6847 23.5925 25.4545 24.1725 25.4545C24.7525 25.4545 25.3088 25.6847 25.7191 26.0946L26.9202 27.2957C28.0867 26.631 29.3311 26.1136 30.625 25.7555V24.0625C30.6256 23.4825 30.8562 22.9265 31.2663 22.5163C31.6765 22.1062 32.2325 21.8756 32.8125 21.875H37.1875C37.7675 21.8756 38.3235 22.1062 38.7337 22.5163C39.1438 22.9265 39.3744 23.4825 39.375 24.0625V25.7555C40.6689 26.1136 41.9133 26.631 43.0798 27.2957L44.2809 26.0946C44.6975 25.6965 45.2516 25.4743 45.8279 25.4744C46.4041 25.4745 46.9582 25.6968 47.3746 26.0951L50.4679 29.1884C50.6711 29.3914 50.8323 29.6326 50.9422 29.8979C51.0522 30.1633 51.1088 30.4478 51.1088 30.735C51.1088 31.0223 51.0522 31.3067 50.9422 31.5721C50.8323 31.8375 50.6711 32.0786 50.4679 32.2816L49.2669 33.4827C49.9316 34.6492 50.4489 35.8936 50.807 37.1875H51.4062C52.2762 37.1884 53.1102 37.5345 53.7254 38.1496C54.3405 38.7648 54.6866 39.5988 54.6875 40.4688V42.6562ZM67.8125 17.5V9.84375C67.8116 8.9738 67.4655 8.13975 66.8504 7.5246C66.2352 6.90946 65.4012 6.56345 64.5312 6.5625H5.46875C4.5988 6.56345 3.76475 6.90946 3.1496 7.5246C2.53446 8.13975 2.18845 8.9738 2.1875 9.84375V17.5H67.8125ZM60.1562 8.75C60.8052 8.75 61.4396 8.94244 61.9792 9.30299C62.5188 9.66354 62.9394 10.176 63.1877 10.7756C63.4361 11.3751 63.5011 12.0349 63.3745 12.6714C63.2478 13.3079 62.9353 13.8926 62.4764 14.3514C62.0176 14.8103 61.4329 15.1228 60.7964 15.2495C60.1599 15.3761 59.5001 15.3111 58.9006 15.0627C58.301 14.8144 57.7885 14.3938 57.428 13.8542C57.0674 13.3146 56.875 12.6802 56.875 12.0312C56.8759 11.1613 57.222 10.3273 57.8371 9.7121C58.4523 9.09696 59.2863 8.75095 60.1562 8.75ZM52.5 8.75C53.149 8.75 53.7834 8.94244 54.323 9.30299C54.8626 9.66354 55.2831 10.176 55.5315 10.7756C55.7798 11.3751 55.8448 12.0349 55.7182 12.6714C55.5916 13.3079 55.2791 13.8926 54.8202 14.3514C54.3613 14.8103 53.7766 15.1228 53.1401 15.2495C52.5036 15.3761 51.8439 15.3111 51.2443 15.0627C50.6448 14.8144 50.1323 14.3938 49.7717 13.8542C49.4112 13.3146 49.2188 12.6802 49.2188 12.0312C49.2197 11.1613 49.5657 10.3273 50.1809 9.7121C50.796 9.09696 51.6301 8.75095 52.5 8.75ZM9.84375 10.9375H42.6562C42.9463 10.9375 43.2245 11.0527 43.4296 11.2579C43.6348 11.463 43.75 11.7412 43.75 12.0312C43.75 12.3213 43.6348 12.5995 43.4296 12.8046C43.2245 13.0098 42.9463 13.125 42.6562 13.125H9.84375C9.55367 13.125 9.27547 13.0098 9.07035 12.8046C8.86523 12.5995 8.75 12.3213 8.75 12.0312C8.75 11.7412 8.86523 11.463 9.07035 11.2579C9.27547 11.0527 9.55367 10.9375 9.84375 10.9375ZM35 29.5312C32.6204 29.5312 30.2943 30.2369 28.3158 31.5589C26.3373 32.8809 24.7952 34.7599 23.8846 36.9583C22.974 39.1568 22.7357 41.5758 23.1999 43.9097C23.6642 46.2435 24.81 48.3873 26.4926 50.0699C28.1752 51.7525 30.319 52.8983 32.6528 53.3626C34.9867 53.8268 37.4057 53.5885 39.6042 52.6779C41.8026 51.7673 43.6816 50.2252 45.0036 48.2467C46.3256 46.2682 47.0312 43.9421 47.0312 41.5625C47.0276 38.3727 45.7589 35.3146 43.5034 33.0591C41.2479 30.8036 38.1898 29.5349 35 29.5312ZM31.864 43.5754C31.9656 43.6769 32.0461 43.7975 32.1011 43.9302C32.156 44.0628 32.1843 44.2051 32.1843 44.3487C32.1843 44.4923 32.156 44.6345 32.1011 44.7672C32.0461 44.8999 31.9656 45.0204 31.864 45.122C31.7625 45.2235 31.6419 45.3041 31.5092 45.3591C31.3765 45.414 31.2343 45.4423 31.0907 45.4423C30.9471 45.4423 30.8049 45.414 30.6722 45.3591C30.5395 45.3041 30.4189 45.2235 30.3174 45.122L27.6642 42.4683C27.5626 42.3667 27.482 42.2462 27.4271 42.1135C27.3721 41.9808 27.3438 41.8386 27.3438 41.6949C27.3438 41.5513 27.3721 41.4091 27.4271 41.2764C27.482 41.1437 27.5626 41.0232 27.6642 40.9216L30.3174 38.2684C30.5225 38.0633 30.8007 37.9481 31.0907 37.9481C31.3808 37.9481 31.6589 38.0633 31.864 38.2684C32.0691 38.4735 32.1844 38.7517 32.1844 39.0417C32.1844 39.3318 32.0691 39.61 31.864 39.8151L29.9842 41.6949L31.864 43.5754ZM37.2292 39.6834L34.7277 44.6865C34.5977 44.9456 34.3702 45.1426 34.0951 45.2341C33.8201 45.3257 33.5199 45.3043 33.2606 45.1746C33.0013 45.045 32.8041 44.8177 32.7122 44.5427C32.6204 44.2677 32.6415 43.9675 32.7709 43.7081L35.2723 38.705C35.4023 38.4459 35.6298 38.2489 35.9049 38.1573C36.1799 38.0658 36.4801 38.0872 36.7394 38.2169C36.9987 38.3465 37.1959 38.5738 37.2878 38.8488C37.3796 39.1238 37.3585 39.424 37.2292 39.6834ZM42.3358 42.4683L39.6826 45.122C39.4775 45.3271 39.1993 45.4423 38.9093 45.4423C38.6192 45.4423 38.3411 45.3271 38.136 45.122C37.9309 44.9169 37.8156 44.6387 37.8156 44.3487C37.8156 44.0586 37.9309 43.7805 38.136 43.5754L40.0158 41.6949L38.136 39.8151C37.9309 39.61 37.8156 39.3318 37.8156 39.0417C37.8156 38.7517 37.9309 38.4735 38.136 38.2684C38.3411 38.0633 38.6192 37.9481 38.9093 37.9481C39.1993 37.9481 39.4775 38.0633 39.6826 38.2684L42.3358 40.9216C42.4374 41.0232 42.518 41.1437 42.5729 41.2764C42.6279 41.4091 42.6562 41.5513 42.6562 41.6949C42.6562 41.8386 42.6279 41.9808 42.5729 42.1135C42.518 42.2462 42.4374 42.3667 42.3358 42.4683Z" fill="#131414"/>
</g>
</g>
</svg>
