<svg width="220" height="43" viewBox="0 0 220 43" fill="none" xmlns="http://www.w3.org/2000/svg">
<g id="logo.2893530b23c48b529f06 1">
<path id="Vector" fill-rule="evenodd" clip-rule="evenodd" d="M29.5425 30.1947C26.2623 27.8467 24.0547 23.4611 24.0547 18.4414C24.0547 13.4226 26.2623 9.03692 29.5425 6.68896C32.8218 9.03692 35.0303 13.4226 35.0303 18.4414C35.0303 23.4611 32.8218 27.8467 29.5425 30.1947Z" fill="#FF4DB3"/>
<path id="Vector_2" fill-rule="evenodd" clip-rule="evenodd" d="M29.6816 30.2768C31.9874 26.8841 36.2959 24.5996 41.2249 24.5996C46.1538 24.5996 50.4624 26.8841 52.7682 30.2768C50.4624 33.6685 46.1538 35.953 41.2249 35.953C36.2959 35.953 31.9874 33.6685 29.6816 30.2768Z" fill="#FF4DB3"/>
<path id="Vector_3" fill-rule="evenodd" clip-rule="evenodd" d="M6.5957 30.2544C8.90146 26.8754 13.21 24.5996 18.1389 24.5996C23.0679 24.5996 27.3763 26.8754 29.6821 30.2544C27.3763 33.6344 23.0679 35.9091 18.1389 35.9091C13.21 35.9091 8.90146 33.6344 6.5957 30.2544Z" fill="#FF4DB3"/>
<path id="Vector_4" fill-rule="evenodd" clip-rule="evenodd" d="M29.5415 30.1626C28.8672 26.1272 30.3783 21.4088 33.8952 17.8289C37.411 14.249 42.0447 12.7097 46.0088 13.3964C46.6832 17.4319 45.172 22.1502 41.656 25.7301C38.1392 29.3101 33.5056 30.8494 29.5415 30.1626Z" fill="#FF8DE4"/>
<path id="Vector_5" d="M34.9514 16.8403C35.0033 17.3651 35.0293 17.8997 35.0293 18.4411C35.0293 23.4422 32.837 27.8143 29.577 30.1681C29.5646 30.1661 29.553 30.1642 29.5415 30.1622C28.8672 26.1268 30.3783 21.4084 33.8952 17.8285C34.2367 17.4803 34.5897 17.1505 34.9514 16.8403Z" fill="#FF0068"/>
<path id="Vector_6" d="M29.5977 30.1724C31.8842 26.8412 36.1437 24.5996 41.0168 24.5996C41.5545 24.5996 42.0845 24.6269 42.604 24.6825C42.3048 25.0405 41.9893 25.3907 41.6565 25.7302C38.156 29.2935 33.5493 30.8348 29.5977 30.1724Z" fill="#FF0068"/>
<path id="Vector_7" fill-rule="evenodd" clip-rule="evenodd" d="M29.5282 30.2084C25.5592 30.8903 20.9169 29.3432 17.3915 25.7535C13.865 22.1638 12.3461 17.4367 13.0156 13.3964C16.9836 12.7145 21.6259 14.2616 25.1523 17.8513C28.6778 21.441 30.1977 26.1681 29.5282 30.2084Z" fill="#FF8DE4"/>
<path id="Vector_8" d="M16.4297 24.6884C16.9655 24.6288 17.5128 24.5996 18.0669 24.5996C22.9477 24.5996 27.213 26.8481 29.4966 30.187C29.4899 30.1968 29.4831 30.2075 29.4764 30.2173C25.519 30.8767 20.9027 29.3267 17.3926 25.7535C17.053 25.4083 16.7327 25.0522 16.4297 24.6884Z" fill="#FF0068"/>
<path id="Vector_9" d="M29.5319 30.1867C26.2585 27.8368 24.0547 23.455 24.0547 18.4411C24.0547 17.9163 24.0787 17.3974 24.1278 16.8882C24.4779 17.1916 24.8204 17.5125 25.1532 17.851C28.6729 21.4349 30.1928 26.1512 29.5319 30.1867Z" fill="#FF0068"/>
<path id="Vector_10" d="M30.5287 26.3315H28.5566V30.2754H30.5287V26.3315Z" fill="#FF0068"/>
<path id="Vector_11" d="M60.3789 29.921V13.1988H67.8699C69.6603 13.1988 71.2387 13.5491 72.6051 14.2499C73.9715 14.9347 75.0396 15.8982 75.8088 17.1404C76.5781 18.3827 76.9632 19.8558 76.9632 21.5599C76.9632 23.248 76.5781 24.7212 75.8088 25.9794C75.0396 27.2215 73.9715 28.193 72.6051 28.8938C71.2387 29.5786 69.6603 29.921 67.8699 29.921H60.3789ZM64.1952 26.7438H67.6813C68.7808 26.7438 69.7312 26.5368 70.5318 26.1227C71.3485 25.6927 71.977 25.0875 72.4165 24.3071C72.872 23.5268 73.1 22.611 73.1 21.5599C73.1 20.4929 72.872 19.5771 72.4165 18.8127C71.977 18.0323 71.3485 17.4351 70.5318 17.021C69.7312 16.591 68.7808 16.376 67.6813 16.376H64.1952V26.7438ZM78.7576 29.921V17.0688H82.2677V20.6999L81.7733 19.6488C82.1499 18.741 82.7546 18.0562 83.5872 17.5944C84.4193 17.1165 85.432 16.8777 86.6263 16.8777V20.3177C86.4686 20.3018 86.3274 20.2938 86.2022 20.2938C86.076 20.2779 85.9428 20.2699 85.8016 20.2699C84.7959 20.2699 83.9798 20.5645 83.3517 21.1538C82.7391 21.7271 82.4328 22.6269 82.4328 23.8532V29.921H78.7576ZM89.2388 30.1121C88.6102 30.1121 88.0685 29.8971 87.613 29.4671C87.173 29.0212 86.9535 28.4558 86.9535 27.771C86.9535 27.0862 87.173 26.5368 87.613 26.1227C88.0685 25.6927 88.6102 25.4777 89.2388 25.4777C89.8824 25.4777 90.4241 25.6927 90.8641 26.1227C91.3036 26.5368 91.5236 27.0862 91.5236 27.771C91.5236 28.4558 91.3036 29.0212 90.8641 29.4671C90.4241 29.8971 89.8824 30.1121 89.2388 30.1121ZM107.258 30.2077C105.954 30.2077 104.753 30.0007 103.654 29.5865C102.571 29.1565 101.62 28.5514 100.804 27.771C100.002 26.9907 99.3738 26.0749 98.9188 25.0238C98.4788 23.9727 98.2593 22.818 98.2593 21.5599C98.2593 20.3018 98.4788 19.1471 98.9188 18.096C99.3738 17.0449 100.01 16.1291 100.827 15.3488C101.644 14.5684 102.601 13.9712 103.701 13.5571C104.8 13.1271 106.01 12.9121 107.329 12.9121C108.789 12.9121 110.101 13.159 111.263 13.6527C112.441 14.1464 113.43 14.863 114.232 15.8027L111.781 18.096C111.184 17.459 110.533 16.9891 109.826 16.6865C109.119 16.368 108.349 16.2088 107.517 16.2088C106.717 16.2088 105.986 16.3362 105.327 16.591C104.667 16.8458 104.094 17.2121 103.607 17.6899C103.136 18.1677 102.766 18.733 102.5 19.386C102.248 20.039 102.123 20.7636 102.123 21.5599C102.123 22.3402 102.248 23.0569 102.5 23.7099C102.766 24.3629 103.136 24.9362 103.607 25.4299C104.094 25.9077 104.659 26.274 105.303 26.5288C105.963 26.7836 106.685 26.911 107.47 26.911C108.224 26.911 108.955 26.7915 109.661 26.5527C110.383 26.2979 111.082 25.8758 111.758 25.2865L113.925 28.0815C113.03 28.7664 111.985 29.2919 110.792 29.6582C109.614 30.0245 108.436 30.2077 107.258 30.2077ZM110.439 27.5799V21.2971H113.925V28.0815L110.439 27.5799ZM117.988 34.7466C117.328 34.7466 116.676 34.643 116.033 34.436C115.389 34.229 114.863 33.9423 114.455 33.576L115.797 30.9244C116.08 31.1791 116.402 31.3782 116.763 31.5216C117.14 31.6649 117.509 31.7365 117.87 31.7365C118.389 31.7365 118.797 31.6091 119.095 31.3544C119.409 31.1154 119.692 30.7094 119.944 30.136L120.603 28.5594L120.886 28.1532L125.433 17.0688H128.966L123.242 30.7094C122.833 31.7445 122.362 32.5568 121.828 33.146C121.31 33.7352 120.728 34.1494 120.085 34.3882C119.456 34.6271 118.758 34.7466 117.988 34.7466ZM120.156 30.4227L114.502 17.0688H118.294L122.676 27.8188L120.156 30.4227ZM137.344 16.8777C138.35 16.8777 139.245 17.0847 140.03 17.4988C140.831 17.8969 141.459 18.518 141.915 19.3621C142.37 20.1902 142.598 21.2573 142.598 22.5632V29.921H138.923V23.1365C138.923 22.1014 138.695 21.3369 138.24 20.8432C137.799 20.3495 137.172 20.1027 136.355 20.1027C135.774 20.1027 135.248 20.2301 134.777 20.4849C134.321 20.7238 133.96 21.098 133.693 21.6077C133.441 22.1173 133.316 22.7702 133.316 23.5665V29.921H129.641V17.0688H133.152V20.6282L132.492 19.5532C132.947 18.6932 133.599 18.0323 134.447 17.5704C135.295 17.1086 136.261 16.8777 137.344 16.8777ZM151.486 30.1121C150.042 30.1121 148.77 29.8254 147.67 29.2521C146.586 28.6788 145.746 27.8984 145.149 26.911C144.553 25.9077 144.254 24.769 144.254 23.4949C144.254 22.2049 144.545 21.0662 145.126 20.0788C145.722 19.0754 146.532 18.2951 147.552 17.7377C148.573 17.1644 149.727 16.8777 151.015 16.8777C152.256 16.8777 153.371 17.1484 154.36 17.6899C155.366 18.2154 156.159 18.9799 156.739 19.9832C157.321 20.9707 157.611 22.1571 157.611 23.5427C157.611 23.686 157.603 23.8532 157.587 24.0444C157.572 24.2195 157.557 24.3868 157.541 24.546H147.246V22.3721H155.609L154.195 23.0171C154.195 22.3482 154.062 21.7669 153.795 21.2732C153.528 20.7795 153.159 20.3973 152.688 20.1265C152.217 19.8399 151.667 19.6965 151.038 19.6965C150.41 19.6965 149.853 19.8399 149.366 20.1265C148.895 20.3973 148.526 20.7875 148.259 21.2971C147.992 21.7908 147.858 22.3801 147.858 23.0649V23.6382C147.858 24.339 148.008 24.9601 148.306 25.5015C148.62 26.0271 149.052 26.4332 149.602 26.7199C150.167 26.9907 150.826 27.126 151.581 27.126C152.256 27.126 152.845 27.0225 153.347 26.8154C153.865 26.6084 154.337 26.2979 154.761 25.8838L156.716 28.0338C156.135 28.7027 155.405 29.2202 154.525 29.5865C153.646 29.9369 152.633 30.1121 151.486 30.1121ZM167.384 30.2077C166.112 30.2077 164.927 30.0007 163.827 29.5865C162.743 29.1565 161.801 28.5514 161 27.771C160.199 26.9907 159.571 26.0749 159.116 25.0238C158.676 23.9727 158.456 22.818 158.456 21.5599C158.456 20.3018 158.676 19.1471 159.116 18.096C159.571 17.0449 160.199 16.1291 161 15.3488C161.817 14.5684 162.767 13.9712 163.851 13.5571C164.934 13.1271 166.12 12.9121 167.408 12.9121C168.837 12.9121 170.125 13.1669 171.271 13.6765C172.434 14.1702 173.408 14.9029 174.192 15.8744L171.742 18.1677C171.177 17.5147 170.549 17.029 169.858 16.7104C169.167 16.376 168.413 16.2088 167.596 16.2088C166.827 16.2088 166.12 16.3362 165.476 16.591C164.833 16.8458 164.275 17.2121 163.803 17.6899C163.332 18.1677 162.963 18.733 162.696 19.386C162.445 20.039 162.319 20.7636 162.319 21.5599C162.319 22.3562 162.445 23.0808 162.696 23.7338C162.963 24.3868 163.332 24.9521 163.803 25.4299C164.275 25.9077 164.833 26.274 165.476 26.5288C166.12 26.7836 166.827 26.911 167.596 26.911C168.413 26.911 169.167 26.7518 169.858 26.4332C170.549 26.0988 171.177 25.5971 171.742 24.9282L174.192 27.2215C173.408 28.193 172.434 28.9336 171.271 29.4432C170.125 29.9529 168.829 30.2077 167.384 30.2077ZM181.28 30.1121C179.929 30.1121 178.727 29.8254 177.675 29.2521C176.639 28.6788 175.814 27.8984 175.201 26.911C174.605 25.9077 174.306 24.769 174.306 23.4949C174.306 22.2049 174.605 21.0662 175.201 20.0788C175.814 19.0754 176.639 18.2951 177.675 17.7377C178.727 17.1644 179.929 16.8777 181.28 16.8777C182.615 16.8777 183.808 17.1644 184.86 17.7377C185.913 18.2951 186.737 19.0675 187.334 20.0549C187.931 21.0423 188.229 22.189 188.229 23.4949C188.229 24.769 187.931 25.9077 187.334 26.911C186.737 27.8984 185.913 28.6788 184.86 29.2521C183.808 29.8254 182.615 30.1121 181.28 30.1121ZM181.28 27.0544C181.892 27.0544 182.442 26.911 182.928 26.6244C183.416 26.3377 183.8 25.9315 184.083 25.406C184.366 24.8645 184.507 24.2275 184.507 23.4949C184.507 22.7464 184.366 22.1094 184.083 21.5838C183.8 21.0582 183.416 20.6521 182.928 20.3654C182.442 20.0788 181.892 19.9354 181.28 19.9354C180.667 19.9354 180.118 20.0788 179.63 20.3654C179.143 20.6521 178.751 21.0582 178.453 21.5838C178.17 22.1094 178.029 22.7464 178.029 23.4949C178.029 24.2275 178.17 24.8645 178.453 25.406C178.751 25.9315 179.143 26.3377 179.63 26.6244C180.118 26.911 180.667 27.0544 181.28 27.0544ZM206.092 16.8777C207.097 16.8777 207.985 17.0847 208.754 17.4988C209.539 17.8969 210.152 18.518 210.592 19.3621C211.047 20.1902 211.275 21.2573 211.275 22.5632V29.921H207.6V23.1365C207.6 22.1014 207.388 21.3369 206.964 20.8432C206.54 20.3495 205.943 20.1027 205.173 20.1027C204.64 20.1027 204.161 20.2301 203.737 20.4849C203.313 20.7238 202.983 21.0901 202.747 21.5838C202.511 22.0775 202.394 22.7065 202.394 23.471V29.921H198.718V23.1365C198.718 22.1014 198.506 21.3369 198.082 20.8432C197.674 20.3495 197.085 20.1027 196.316 20.1027C195.782 20.1027 195.303 20.2301 194.879 20.4849C194.455 20.7238 194.125 21.0901 193.889 21.5838C193.654 22.0775 193.536 22.7065 193.536 23.471V29.921H189.861V17.0688H193.371V20.5804L192.712 19.5532C193.151 18.6773 193.772 18.0164 194.572 17.5704C195.389 17.1086 196.316 16.8777 197.352 16.8777C198.514 16.8777 199.528 17.1802 200.391 17.7854C201.271 18.3747 201.852 19.2825 202.134 20.5088L200.839 20.1504C201.263 19.1471 201.938 18.3508 202.865 17.7615C203.807 17.1723 204.882 16.8777 206.092 16.8777Z" fill="#6DCFC0"/>
</g>
</svg>
