<svg width="285" height="71" viewBox="0 0 285 71" fill="none" xmlns="http://www.w3.org/2000/svg">
<g clip-path="url(#clip0_801_1575)">
<mask id="mask0_801_1575" style="mask-type:luminance" maskUnits="userSpaceOnUse" x="92" y="25" width="193" height="21">
<path d="M285 25.9904H92.5669V45.219H285V25.9904Z" fill="white"/>
</mask>
<g mask="url(#mask0_801_1575)">
<path d="M201.999 34.7511V43.5118H203.311H204.624V34.7511V25.9905H203.311H201.999V34.7511Z" fill="white"/>
<path d="M234.312 27.5629V29.0455H235.625H236.937V27.5629V26.0803H235.625H234.312V27.5629Z" fill="white"/>
<path d="M130.674 27.0327C129.506 27.2124 128.673 27.6797 128.211 28.4165C128.012 28.7399 122.364 42.7571 122.193 43.3591C122.147 43.5028 122.265 43.5118 123.722 43.5118H125.297L126.636 40.1154C130.031 31.5613 130.529 30.3483 130.728 30.1506C131.008 29.8721 131.515 29.8721 131.787 30.1416C131.905 30.2585 132.185 30.8515 132.42 31.4715C132.656 32.0915 133.778 35.0387 134.919 38.0308L136.982 43.4669L138.593 43.4938C139.861 43.5118 140.187 43.4938 140.159 43.404C137.806 37.2041 134.493 28.6501 134.339 28.4165C134.068 27.9942 133.534 27.5269 133.063 27.3292C132.484 27.0687 131.352 26.9339 130.674 27.0327Z" fill="white"/>
<path d="M92.5669 35.4251V43.5119H94.015H95.4631V35.4251V27.3383H94.015H92.5669V35.4251Z" fill="white"/>
<path d="M99.9981 27.4551C99.8803 27.5089 99.6905 27.6797 99.591 27.8145C99.4006 28.0661 99.4006 28.12 99.3738 35.2364C99.3463 42.9997 99.3463 42.9188 99.8351 43.2782C100.088 43.4669 100.17 43.4669 104.089 43.4669C107.945 43.4669 108.117 43.4579 108.859 43.2692C112.227 42.3797 113.838 39.8548 113.838 35.4251C113.838 30.8156 112.027 28.1559 108.416 27.482C107.43 27.2933 100.351 27.2753 99.9981 27.4551ZM108.09 30.3484C110.099 30.8695 110.95 32.379 110.942 35.4071C110.932 36.9615 110.769 37.8781 110.353 38.7226C109.864 39.7021 109.158 40.2412 108 40.5018C107.538 40.6096 106.886 40.6365 104.859 40.6186L102.297 40.5916L102.27 35.5149C102.261 32.7205 102.27 30.3843 102.297 30.3214C102.36 30.1507 107.375 30.1686 108.09 30.3484Z" fill="white"/>
<path d="M141.463 33.2417C141.499 38.4891 141.517 39.2169 141.653 39.6931C142.232 41.7148 143.544 42.9099 145.636 43.3411C146.378 43.4939 146.903 43.5119 150.252 43.5119H154.026V42.0832V40.6456L150.207 40.6186L146.378 40.5917L145.816 40.34C145.156 40.0346 144.875 39.756 144.595 39.154L144.387 38.7047L144.359 33.017L144.332 27.3383H142.884H141.436L141.463 33.2417Z" fill="white"/>
<path d="M171.812 27.4282C169.468 27.9133 168.237 29.4678 168.237 31.9658C168.237 34.3828 169.332 35.8294 171.632 36.4674C172.066 36.5932 172.781 36.6291 175.297 36.674C178.203 36.728 178.447 36.7459 178.827 36.9167C179.334 37.1503 179.795 37.6624 179.877 38.0757C179.904 38.2554 179.913 38.6329 179.895 38.9204C179.841 39.6482 179.515 40.1244 178.89 40.4209L178.42 40.6366H173.468H168.508V42.0742V43.5119H173.478C177.497 43.5119 178.583 43.4849 179.153 43.3771C181.018 43.0267 182.267 41.8765 182.683 40.1334C182.792 39.6661 182.819 39.2528 182.783 38.4801C182.692 36.5393 182.013 35.3532 180.574 34.6254C179.506 34.0953 179.252 34.0593 175.795 33.9964L172.627 33.9425L172.084 33.6729C171.396 33.3315 171.134 32.8822 171.134 32.0735C171.134 31.3637 171.396 30.8246 171.885 30.5011L172.256 30.2585L176.917 30.2136L181.588 30.1686L181.615 28.749L181.642 27.3383L176.908 27.3473C174.301 27.3562 172.011 27.3922 171.812 27.4282Z" fill="white"/>
<path d="M225.714 29.3151V30.8426H224.808H223.894L223.921 32.0736L223.948 33.3136L224.836 33.3405L225.714 33.3675V36.8448C225.714 40.5378 225.768 41.1218 226.166 41.9395C226.438 42.4876 227.026 43.0357 227.614 43.2603C228.049 43.431 228.329 43.458 229.949 43.4939L231.778 43.5299V42.3618V41.1937L230.538 41.1577C229.063 41.1218 228.782 41.023 228.511 40.4299C228.357 40.0795 228.338 39.801 228.338 36.71V33.3585L230.086 33.3405L231.823 33.3136L231.85 32.0736L231.877 30.8426H230.112H228.338L228.32 29.333L228.293 27.8325L227.008 27.8055L225.714 27.7786V29.3151Z" fill="white"/>
<path d="M189.462 30.9324C187.426 31.3368 186.023 32.7026 185.48 34.7961C185.154 36.072 185.154 38.2914 185.48 39.5673C186.005 41.598 187.39 42.9818 189.308 43.3771C190.168 43.5658 194.015 43.5568 194.884 43.3771C196.179 43.1076 197.292 42.3528 197.989 41.2925C199.003 39.7291 199.292 36.6831 198.641 34.5536C198.034 32.6037 196.74 31.3638 194.884 30.9774C194.196 30.8336 190.141 30.7977 189.462 30.9324ZM194.613 33.5472C195.319 33.8078 195.871 34.4277 196.133 35.2814C196.423 36.2068 196.432 38.1477 196.143 39.0732C195.898 39.8369 195.418 40.421 194.785 40.7355C194.359 40.9421 194.287 40.9511 192.133 40.9511C189.997 40.9511 189.897 40.9421 189.444 40.7355C188.838 40.4659 188.413 39.9987 188.15 39.3248C187.978 38.8844 187.933 38.57 187.896 37.5097C187.833 35.5419 188.096 34.6254 188.892 33.9515C189.499 33.4304 189.834 33.3675 192.105 33.3675C193.925 33.3585 194.169 33.3765 194.613 33.5472Z" fill="white"/>
<path d="M208.181 35.1735C208.217 39.8818 208.217 39.8908 208.751 40.987C209.058 41.607 209.945 42.5145 210.561 42.82C210.805 42.9458 211.312 43.1435 211.683 43.2603C212.335 43.458 212.48 43.467 214.987 43.467C217.603 43.467 217.612 43.467 218.336 43.2244C220.092 42.6314 221.223 41.3734 221.558 39.6122C221.604 39.3697 221.64 37.303 221.64 35.0118V30.8426H220.373H219.114L219.087 34.9938L219.06 39.154L218.834 39.5943C218.571 40.1064 218.236 40.403 217.567 40.7175C217.078 40.9511 217.042 40.9511 214.942 40.9511C212.959 40.9511 212.787 40.9421 212.398 40.7624C211.828 40.4929 211.285 39.9897 211.032 39.4865C210.824 39.0641 210.824 39.0372 210.796 34.9489L210.769 30.8426H209.457H208.144L208.181 35.1735Z" fill="white"/>
<path d="M234.312 37.1772V43.5119H235.579H236.846V37.1772V30.8426H235.579H234.312V37.1772Z" fill="white"/>
<path d="M244.006 30.9863C242.042 31.4086 240.775 32.6846 240.178 34.841C240.015 35.452 239.978 35.7935 239.978 37.1772C239.978 38.561 240.015 38.9024 240.178 39.5134C240.766 41.6519 241.915 42.838 243.879 43.3411C244.468 43.4849 244.884 43.5119 246.803 43.5119C249.265 43.5119 249.871 43.422 250.94 42.9099C252.062 42.3708 253.003 41.1038 253.428 39.5583C253.61 38.8934 253.637 38.5879 253.637 37.1772C253.637 35.3173 253.528 34.7782 252.949 33.5562C252.288 32.1904 251.139 31.3098 249.564 30.9774C248.704 30.7976 244.848 30.7976 244.006 30.9863ZM249.6 33.6729C250.161 33.9784 250.505 34.4007 250.804 35.1466C250.985 35.5958 251.003 35.8024 251.003 37.1772C251.003 38.552 250.985 38.7586 250.804 39.2079C250.487 39.9986 250.143 40.403 249.545 40.6905L249.021 40.9511H246.794H244.576L244.033 40.6815C243.047 40.1783 242.648 39.3067 242.576 37.4917C242.522 36.1709 242.675 35.2993 243.074 34.5805C243.345 34.1043 243.961 33.6101 244.486 33.4573C244.64 33.4034 245.744 33.3765 246.939 33.3854L249.111 33.4034L249.6 33.6729Z" fill="white"/>
<path d="M257.62 30.9683C257.248 31.1301 256.959 31.4715 256.85 31.8399C256.796 32.0196 256.759 34.4007 256.759 37.8241V43.5118H258.027H259.294V38.5789C259.294 35.8653 259.321 33.5831 259.348 33.5022C259.394 33.3764 259.728 33.3585 262.109 33.3585C263.756 33.3585 264.996 33.3944 265.286 33.4573C266.245 33.6639 266.906 34.1402 267.332 34.9309L267.576 35.3801L267.603 39.4415L267.63 43.5118H268.943H270.255L270.228 39.2618C270.192 35.461 270.174 34.9668 270.029 34.5265C269.422 32.7115 268.273 31.6602 266.264 31.0941C265.63 30.9144 265.322 30.9055 261.738 30.8695C258.615 30.8515 257.836 30.8695 257.62 30.9683Z" fill="white"/>
<path d="M276.084 30.9324C275.279 31.0942 274.645 31.4087 274.174 31.8669C273.55 32.4959 273.315 33.1159 273.252 34.3199C273.152 36.3506 273.985 37.5546 275.813 38.0398C276.438 38.2015 276.89 38.2285 279.026 38.2735C281.932 38.3363 282.067 38.3633 282.33 39.0641C282.511 39.5134 282.466 40.1603 282.249 40.4748C281.904 40.9601 282.022 40.9511 277.533 40.996L273.369 41.041L273.342 42.2809L273.315 43.5209L277.732 43.4939C282.031 43.458 282.167 43.458 282.692 43.2603C283.869 42.829 284.593 41.9934 284.873 40.7444C285.045 39.9717 285.009 38.9833 284.783 38.2375C284.602 37.6624 283.959 36.9346 283.362 36.6291C282.466 36.1889 282.05 36.1259 279.207 36.063C277.279 36.0271 276.483 35.9732 276.329 35.8923C275.795 35.5958 275.596 34.6434 275.931 33.9874C276.238 33.3585 276.257 33.3585 280.592 33.3585H284.457V32.1005V30.8426L280.456 30.8515C278.248 30.8605 276.283 30.8965 276.084 30.9324Z" fill="white"/>
<path d="M156.261 40.2502C156.225 40.2772 156.198 41.0319 156.198 41.9125V43.5119H157.601H159.004V41.8496V40.1873H157.664C156.922 40.1873 156.289 40.2143 156.261 40.2502Z" fill="white"/>
</g>
<path d="M35.4565 55.4171V16.3879C35.4565 16.0145 35.154 15.7116 34.7806 15.7116H33.4522C33.0785 15.7116 32.776 16.0145 32.776 16.3879V55.4171C32.776 55.791 33.0785 56.0938 33.4522 56.0938H34.7806C35.154 56.0938 35.4565 55.791 35.4565 55.4171ZM28.5249 58.2141C24.3804 59.5894 20.5684 54.8809 21.2763 49.3627C16.8036 51.4056 11.6925 47.7832 11.8105 42.3071H22.1933V44.2495C19.9934 45.1017 20.6075 48.3753 22.9619 48.3753C25.3119 48.3753 25.9362 45.1044 23.7312 44.2495V42.3071H27.3057C27.5229 42.8667 27.965 43.3097 28.5249 43.5266C28.5249 46.4035 28.5249 54.8292 28.5249 58.2141ZM30.1019 57.3524C30.0888 57.3626 30.0769 57.3761 30.0638 57.3863C30.0638 52.7537 30.0638 48.1496 30.0638 43.5266C30.8627 43.2169 31.431 42.4461 31.431 41.5376C31.431 39.184 28.1586 38.5663 27.3057 40.7682C25.1794 40.7682 18.609 40.7682 16.6482 40.7682V30.0423C17.4468 29.7326 18.0154 28.9618 18.0154 28.0533C18.0154 26.873 17.059 25.9159 15.8785 25.9159C14.6981 25.9159 13.7417 26.873 13.7417 28.0533C13.7417 28.9618 14.311 29.7326 15.1093 30.0423V40.7682H11.9888C12.4072 38.8436 13.4955 37.2547 14.8499 36.2649C13.0544 34.9527 11.8036 32.656 11.8036 30.0571C11.8036 25.528 15.5531 21.8472 19.904 22.728V29.4212V30.9602C21.1134 30.9602 24.4529 30.9602 25.832 30.9602C26.6872 33.1648 29.9576 32.542 29.9576 30.1907C29.9576 27.8364 26.6859 27.2204 25.832 29.4212H21.4426V19.642C22.0743 16.8468 23.86 14.7036 26.0717 14.1922C25.9857 13.3509 25.9082 12.4832 25.8481 11.7215C23.5517 12.102 21.3495 13.6602 19.904 16.6474C19.3914 17.706 19.0275 18.8829 18.8521 20.1406C13.5778 20.0053 9.34293 24.5598 9.34293 30.0571C9.34293 32.4057 10.1149 34.5633 11.3965 36.2649C6.5673 42.6745 10.776 52.5739 18.8521 52.3897C19.5229 57.2228 22.9572 60.9186 27.0909 60.9186C28.131 60.9186 29.1502 60.6657 30.1019 60.2091V57.3524ZM25.2421 23.3325C25.2421 25.6868 28.5151 26.3025 29.367 24.1017H32.9956C32.9956 26.5079 32.9956 33.435 32.9956 35.4954H23.0307C22.1751 33.2916 18.9047 33.9133 18.9047 36.2649C18.9047 38.6202 22.1764 39.2342 23.0307 37.0344H32.9956C32.9956 38.4455 32.9956 46.8613 32.9956 49.9267H35.4565C35.4565 45.9261 35.4565 27.5153 35.4565 24.1017C35.4565 22.9952 35.4565 22.8397 35.4565 22.5631H32.9956H32.6273H29.367C28.5168 20.3673 25.2421 20.9742 25.2421 23.3325ZM62.2931 36.2622C62.2904 35.5245 61.6914 34.924 60.9579 34.924H60.4148C60.3325 34.924 60.2518 34.9317 60.2276 34.9402C59.506 34.9598 58.8193 34.9614 58.3111 34.7709C57.8998 34.6167 57.525 34.3147 57.2545 33.9187C56.8372 33.3115 56.642 32.4765 56.6576 31.364C56.6705 30.4704 56.8001 29.5673 56.9378 28.6109C57.0114 28.1026 57.084 27.5932 57.141 27.0834C57.7471 21.5935 54.5846 16.084 49.0846 13.0472C46.1792 11.4425 42.7766 10.3977 39.5052 10.1049C39.1457 10.0746 38.8004 10.1818 38.5248 10.4156C38.2537 10.6464 38.0871 10.9682 38.0554 11.3234C38.024 11.6783 38.1306 12.0251 38.3562 12.2997C38.5852 12.5784 38.9093 12.7501 39.2674 12.7817C42.1797 13.0422 45.2102 13.9732 47.8003 15.4036C52.3486 17.9131 54.9729 22.3812 54.4857 26.7863C54.4335 27.267 54.3642 27.7463 54.2943 28.2264C54.1507 29.2246 54.0023 30.2572 53.9867 31.3259C53.9636 33.0143 54.3131 34.362 55.0557 35.4449C55.2708 35.7589 55.5294 36.0362 55.8048 36.2916C55.5294 36.5469 55.2713 36.8236 55.0562 37.1376C54.3136 38.2219 53.9636 39.5702 53.9867 41.2593C54.0023 42.3253 54.1507 43.3579 54.2953 44.3669C54.3652 44.8432 54.4341 45.3189 54.4857 45.7976C54.9729 50.2033 52.3486 54.6716 47.8003 57.1803C45.2102 58.6105 42.1797 59.5416 39.2678 59.8019C38.9093 59.8336 38.5852 60.0052 38.3559 60.2849C38.1306 60.5587 38.024 60.9056 38.0554 61.2606C38.1181 61.9583 38.6894 62.4838 39.3848 62.4838C39.4243 62.4838 39.4638 62.4827 39.5045 62.4789C42.7769 62.1863 46.1792 61.1412 49.0846 59.5367C54.5846 56.502 57.7471 50.9924 57.141 45.4997C57.084 44.9907 57.0114 44.4813 56.9367 43.9658C56.8001 43.0115 56.6705 42.1108 56.6576 41.2219C56.642 40.109 56.8372 39.2717 57.255 38.6631C57.525 38.2691 57.8998 37.9672 58.3101 37.8124C58.6747 37.6757 59.1387 37.6386 59.6238 37.6345C59.6458 37.6345 59.6722 37.6359 59.6942 37.6359C59.7254 37.6359 59.7544 37.6346 59.7856 37.6342C59.9163 37.6349 60.048 37.6362 60.1798 37.6396C60.2556 37.6521 60.3346 37.6599 60.4148 37.6599H60.9579C61.6914 37.6599 62.2904 37.0594 62.2931 36.3216C62.2931 36.3115 62.2904 36.302 62.2904 36.2919C62.2904 36.2818 62.2931 36.2724 62.2931 36.2622ZM33.3905 60.2849C33.1611 60.0052 32.8374 59.8336 32.4785 59.8019C30.5214 59.6271 28.5138 59.143 26.6191 58.4136C26.5645 58.5051 26.5152 58.5998 26.4538 58.6874C25.9621 59.3921 25.52 60.0563 25.037 60.6765C27.3418 61.6345 29.8267 62.2627 32.2421 62.4789C32.2826 62.4827 32.3221 62.4838 32.3615 62.4838C33.0569 62.4838 33.6283 61.9583 33.691 61.2606C33.7223 60.9056 33.6158 60.5587 33.3905 60.2849ZM23.4273 15.7116C23.599 15.6077 23.7683 15.5014 23.946 15.4036C26.5364 13.9732 29.567 13.0422 32.4789 12.7817C32.8374 12.7501 33.1611 12.5784 33.3902 12.2997C33.6157 12.0251 33.7223 11.6783 33.691 11.3234C33.6593 10.9682 33.4926 10.6464 33.2215 10.4156C32.946 10.1818 32.6007 10.0746 32.2414 10.1049C29.1981 10.3775 26.0461 11.3072 23.2816 12.7264C23.6192 13.6889 23.6988 14.7188 23.4273 15.7116ZM35.4561 68.8437C17.2067 68.8437 2.35964 53.9923 2.35964 35.738C2.35964 17.4837 17.2067 2.63208 35.4561 2.63208C53.7057 2.63208 68.5534 17.4837 68.5534 35.738C68.5534 53.9923 53.7057 68.8437 35.4561 68.8437ZM35.4561 0.492645C16.0276 0.492645 0.220703 16.3036 0.220703 35.738C0.220703 55.1724 16.0276 70.9833 35.4561 70.9833C54.8858 70.9833 70.6925 55.1724 70.6925 35.738C70.6925 16.3036 54.8858 0.492645 35.4561 0.492645Z" fill="white"/>
</g>
<defs>
<clipPath id="clip0_801_1575">
<rect width="285" height="71" fill="white"/>
</clipPath>
</defs>
</svg>
